<!-- Copyright © 2015 MODULUS Sp. z o. o. / FUTURAMO™ --><svg xmlns="http://www.w3.org/2000/svg" x="0px" y="0px" width="16px" height="16px" viewBox="0 0 32 32"><path  fill="#999999" d="M24,0l8,8v24H12v-4h16V10h-6V4H10v10H6V0H24z M8.904,21.827c-0.657-0.461-1.291-0.978-1.807-1.591 C6.042,18.979,6,18,6,18H4v10.122C3.686,28.048,3.353,28,3,28c-1.657,0-3,0.895-3,2c0,1.105,1.343,2,3,2s3-0.895,3-2v-7.697 C6.712,22.479,7.585,22.758,8,23c1.482,0.865,2.268,2.315,2,3C10,26,12,24,8.904,21.827z"></path></svg>