<!-- Copyright © 2015 MODULUS Sp. z o. o. / FUTURAMO™ --><svg xmlns="http://www.w3.org/2000/svg" x="0px" y="0px" width="16px" height="16px" viewBox="0 0 32 32"><path  fill="#000000" d="M11.938,8.79l-0.094-1.48l1.354-0.753l1.228,0.438L13.285,7.94L11.938,8.79z M32,16c0,8.837-7.163,16-16,16 S0,24.837,0,16S7.163,0,16,0S32,7.163,32,16z M21.374,10.906l1.371,0.672l1.063,2.21l1.218-2.141l-1.816-2.826L21.374,10.906z  M18.991,12.04l-1.606-1.308l-0.462,0.706l-1.299-0.641l-1.864,1.813l2.065-0.324l0.46,0.719l1.446,1.39l4.48-0.438L18.991,12.04z  M27.757,18.094l-2.39-2.977l-3.285,1.472l2.335,1.078L22.5,19.583l-1.75,1.167l-0.5,1.833l-1.75,2.25l-2.333,1.333l-1.26-3.479 l-0.031-2.854l-1.417-0.542l-3.333-1.542l0.712-2.883l1.49-1.784l-0.354-2.2l1.429-0.173l-0.303-1.152l2.696-1.888 c0,0,2.543-0.263,2.598-0.611l-0.517-0.853l-0.898,0.896l-0.694-1.02l-1.637-0.409l3.179-1.517C17.229,4.064,16.622,4,16,4 c-2.96,0-5.668,1.082-7.762,2.865C8.273,7.345,8.57,8.444,8.57,8.444S6.475,9.358,5.992,9.426c-1.042,1.576-1.735,3.402-1.932,5.379 c0.243,0.408,0.602,1.079,0.914,1.68l1.812,1.037l1.102,3.306l-1.791,1.916C8.257,25.911,11.884,28,16,28 C21.896,28,26.757,23.707,27.757,18.094z"></path></svg>