<?xml version="1.0" encoding="utf-8"?>
<!-- Generator: Adobe Illustrator 16.0.0, SVG Export Plug-In . SVG Version: 6.00 Build 0)  -->
<!DOCTYPE svg PUBLIC "-//W3C//DTD SVG 1.1//EN" "http://www.w3.org/Graphics/SVG/1.1/DTD/svg11.dtd">
<svg version="1.1" id="Layer_1" xmlns="http://www.w3.org/2000/svg" xmlns:xlink="http://www.w3.org/1999/xlink" x="0px" y="0px"
	 width="16px" height="16px" viewBox="0 0 16 16" enable-background="new 0 0 16 16" xml:space="preserve">
<g>
	<circle cx="11" cy="6" r="1"/>
	<circle cx="8" cy="6" r="1"/>
	<polygon points="0,0 0,12 3,12 3,16 7,13.333 7,10.93 5,12.263 5,10 2,10 2,2 14,2 14,7 16,7 16,0 	"/>
	<circle cx="5" cy="6" r="1"/>
</g>
<path d="M16,12c0,2.209-1.791,4-4,4s-4-1.791-4-4s1.791-4,4-4S16,9.791,16,12z M13.154,11.441l-0.455-0.339
	c-0.01-0.007-0.017-0.015-0.023-0.024l-0.193-0.283c-0.056-0.059-0.111-0.059-0.166,0.001l-0.041,0.062
	c-0.045,0.052-0.094,0.059-0.15,0.02l-0.165-0.146c-0.056-0.038-0.104-0.032-0.149,0.019l-0.193,0.281
	c-0.035,0.095-0.002,0.146,0.098,0.156l0.148-0.023c0.054-0.01,0.104,0.027,0.114,0.08l0.036,0.192
	c0.006,0.034,0.029,0.063,0.062,0.075l0.303,0.113c0.012,0.005,0.023,0.007,0.037,0.007l0.68-0.01
	C13.201,11.59,13.221,11.529,13.154,11.441z M14.996,12.045c-0.328-0.178-0.692-0.312-0.692-0.312l-1.039,0.288
	c-0.079,0.046-0.091,0.104-0.03,0.174l0.23,0.181c0.049,0.048,0.051,0.099,0.008,0.15l-0.433,0.561
	c-0.016,0.016-0.198,0.275-0.198,0.275c-0.061,0.186-0.627,0.514-0.627,0.514c-0.047,0.025-0.104,0.01-0.133-0.035
	c0,0-0.242-0.384-0.244-0.396l-0.096-0.563c-0.006-0.023-0.019-0.045-0.038-0.06l-0.69-0.514c-0.021-0.016-0.037-0.041-0.039-0.068
	l-0.055-0.466c-0.002-0.021,0.002-0.044,0.014-0.062l0.206-0.349c0.012-0.02,0.017-0.043,0.013-0.066l-0.059-0.365
	c-0.004-0.062,0.025-0.102,0.086-0.115l0.11-0.013c0.065-0.017,0.094-0.058,0.085-0.125l-0.023-0.085
	c-0.01-0.041,0.006-0.084,0.04-0.107l0.54-0.379c0.076-0.054,0.748-0.322,0.621-0.534l-0.235-0.057
	c0.045,0.015-0.187,0.011-0.187,0.011c-0.055,0.043-0.595-0.197-0.382-0.363l0.144-0.073c0.035-0.019,0.021-0.047-0.007-0.078
	c-0.603,0.023-1.159,0.221-1.621,0.55c0.017,0.107,0.043,0.267,0.046,0.277c-0.269,0.211,0.139,0.377-0.336,0.564
	c-0.352,0.139-0.43,0.305-0.564,0.678c-0.197,0.545-0.356,0.959,0.25,1.188c0.021,0.012,0.037,0.031,0.045,0.055l0.222,0.665
	c-0.015,0.095-0.046,0.297-0.053,0.388L9.427,13.52C9.951,14.4,10.902,15,12,15C13.639,15,14.971,13.679,14.996,12.045z
	 M9.928,12.988L9.928,12.988C9.939,12.911,9.937,12.93,9.928,12.988z"/>
</svg>
