<!-- Copyright © 2015 MODULUS Sp. z o. o. / FUTURAMO™ --><svg xmlns="http://www.w3.org/2000/svg" x="0px" y="0px" width="16px" height="16px" viewBox="0 0 32 32"><path  fill="#000000" d="M32,15.305V26H22l-6,6l-6-6H0V0h16.695c-1.462,1.027-2.66,2.4-3.481,4H4v18h7.657L16,26.343L20.343,22H28 v-3.214C29.6,17.965,30.973,16.767,32,15.305z M32,9c0,4.971-4.029,9-9,9c-4.971,0-9-4.029-9-9c0-4.971,4.029-9,9-9 C27.971,0,32,4.029,32,9z M24.59,6.832l-0.455-0.668c-0.131-0.138-0.261-0.137-0.391,0.003l-0.097,0.147 c-0.103,0.122-0.221,0.138-0.352,0.046l-0.39-0.345c-0.13-0.091-0.246-0.077-0.35,0.043L22.1,6.721 c-0.083,0.223-0.006,0.345,0.231,0.365l0.349-0.055c0.126-0.02,0.245,0.064,0.268,0.19l0.083,0.452 c0.015,0.081,0.071,0.149,0.149,0.178l0.712,0.267c0.028,0.01,0.057,0.015,0.086,0.015l1.601-0.024 c0.248-0.076,0.294-0.217,0.137-0.424l-1.072-0.797C24.623,6.872,24.605,6.853,24.59,6.832z M29.927,9.043 C29.19,8.655,28.42,8.37,28.42,8.37l-2.445,0.679c-0.187,0.108-0.211,0.244-0.072,0.409l0.542,0.425 c0.114,0.113,0.12,0.232,0.017,0.355l-1.016,1.318c-0.037,0.035-0.467,0.647-0.467,0.647c-0.141,0.437-1.475,1.209-1.475,1.209 c-0.108,0.058-0.244,0.023-0.31-0.081c0,0-0.57-0.905-0.576-0.933l-0.225-1.327c-0.012-0.056-0.044-0.105-0.089-0.139l-1.625-1.21 c-0.052-0.039-0.086-0.097-0.093-0.162L20.46,8.466c-0.006-0.051,0.005-0.103,0.031-0.147L20.976,7.5 c0.028-0.047,0.039-0.103,0.03-0.157l-0.138-0.861c-0.009-0.148,0.059-0.238,0.204-0.271l0.259-0.031 c0.155-0.037,0.222-0.135,0.199-0.293l-0.053-0.202c-0.025-0.095,0.012-0.196,0.092-0.253l1.271-0.889 c0.18-0.127,1.761-0.761,1.462-1.257l-0.554-0.134c0.106,0.034-0.439,0.026-0.439,0.026c-0.131,0.102-1.4-0.464-0.899-0.856 l0.336-0.172c0.066-0.034,0.05-0.085,0.013-0.139c-1.399,0.048-2.693,0.505-3.768,1.26c-0.04,0.028-0.06,0.076-0.052,0.124 c0.038,0.233,0.08,0.496,0.085,0.518c-0.631,0.494,0.328,0.885-0.791,1.327c-0.826,0.326-1.008,0.716-1.326,1.593 c-0.465,1.282-0.84,2.257,0.588,2.796c0.05,0.029,0.088,0.075,0.106,0.13l0.522,1.564c-0.03,0.198-0.09,0.594-0.116,0.83 c-0.005,0.05-0.04,0.092-0.087,0.107l-0.936,0.302C18.207,14.616,20.442,16,23,16c3.807,0,6.91-3.055,6.995-6.841 C29.996,9.11,29.969,9.066,29.927,9.043z"></path></svg>