<!-- Copyright © 2015 MODULUS Sp. z o. o. / FUTURAMO™ --><svg xmlns="http://www.w3.org/2000/svg" x="0px" y="0px" width="16px" height="16px" viewBox="0 0 32 32"><path  fill="#000000" d="M8,16v-2h4v2H8z M8,8h4V6H8V8z M6,26h8v4H2V0h24v18h-4v-6H6v6h12v2H6V26z M6,10h16V4H6V10z M12,24v-2H8v2H12 z M27.504,22.184c-0.656,0-1.275,0.16-1.836,0.434C25.049,21.078,23.644,20,22.008,20c-2.209,0-4.594,2.102-4,4.949 c0,0-1.855,1.227-2,3.234C15.859,30.285,17.574,32,19.508,32h7.996C29.986,32,32,29.805,32,27.09 C32,24.379,29.986,22.184,27.504,22.184z"></path></svg>