<svg xmlns="http://www.w3.org/2000/svg" viewBox="0 0 32 32"><path d="M28.338 21.383c-1.718-3.197-4.648-5.55-8.026-6.661 2.214-1.423 3.69-3.894 3.69-6.722a8 8 0 1 0-16 0c0 2.827 1.475 5.298 3.688 6.721-3.218 1.056-6.033 3.235-7.777 6.213C1.877 24.409 2.001 28.13 2.001 32h27.996c0-3.684.148-7.254-1.659-10.617zM16.001 4c2.206 0 4 1.794 4 4s-1.794 4-4 4-4-1.794-4-4 1.795-4 4-4zM6.057 28c.109-1.886.422-3.533 1.307-5.045 1.555-2.656 4.378-4.478 7.412-4.871.014.018.015.031.001.039l-2.246 5.732L16 27l3.469-3.145-2.246-5.732c-.015-.008-.015-.021-.005-.037 3.172.404 6.069 2.346 7.597 5.19.758 1.411 1.034 2.985 1.133 4.724H6.057z"/></svg>