<svg xmlns="http://www.w3.org/2000/svg" viewBox="0 0 32 32"><path d="M20.312 14.722c2.214-1.423 3.69-3.894 3.69-6.722a8 8 0 1 0-16 0c0 2.827 1.475 5.298 3.688 6.721-3.218 1.056-6.033 3.235-7.777 6.213C1.877 24.409 2.001 28.13 2.001 32h27.996c0-3.684.148-7.254-1.659-10.617-1.717-3.197-4.647-5.55-8.026-6.661zM16.001 4c2.206 0 4 1.794 4 4s-1.794 4-4 4-4-1.794-4-4 1.795-4 4-4zM6.057 28c.109-1.886.422-3.533 1.307-5.045C9.127 19.945 12.517 18 15.999 18c3.633 0 7.094 2.071 8.815 5.276.758 1.411 1.034 2.985 1.133 4.724H6.057z"/></svg>