<?xml version="1.0" encoding="utf-8"?>
<!-- Generator: Adobe Illustrator 16.0.0, SVG Export Plug-In . SVG Version: 6.00 Build 0)  -->
<!DOCTYPE svg PUBLIC "-//W3C//DTD SVG 1.1//EN" "http://www.w3.org/Graphics/SVG/1.1/DTD/svg11.dtd">
<svg version="1.1" id="Layer_1" xmlns="http://www.w3.org/2000/svg" xmlns:xlink="http://www.w3.org/1999/xlink" x="0px" y="0px"
	 width="18px" height="22px" viewBox="0 0 18 22" enable-background="new 0 0 18 22" xml:space="preserve">
<polygon points="9,12 7,12 7,14 6,14 6,12 4,12 4,11 6,11 6,9 7,9 7,11 9,11 "/>
<path fill="#999999" d="M18,11h-6.5V7.5v-1h-1H7V0H6v6.5H2.5h-1v1v8v1h1H6V22h1v-5.5h3.5h1v-1V12H18V11z M10.5,15.5H7H6H2.5v-8H6h1
	h3.5V11v1V15.5z"/>
</svg>
