<svg xmlns="http://www.w3.org/2000/svg" viewBox="0 0 16 16"><path d="M14 10v2h-2v-1.549a.25.25 0 0 0-.383-.212l-3.278 2.049a.25.25 0 0 0 0 .424l3.278 2.049a.25.25 0 0 0 .383-.212V13h3v-3h-1zM6 13h1L5.5 9h-1L3 13h1l.188-.5h1.625L6 13zm-1.437-1.5L5 10.333l.438 1.167h-.875zM13 5.775a.986.986 0 0 1-.137.518c-.09.152-.217.277-.377.379a1.863 1.863 0 0 1-.606.253c-.22.05-.5.075-.839.075H9V3h1.814c.377 0 .652.011.828.032.176.021.349.069.52.142a.885.885 0 0 1 .398.311.784.784 0 0 1 .129.444.796.796 0 0 1-.18.512 1.144 1.144 0 0 1-.505.345v.021c.306.052.55.16.728.322a.834.834 0 0 1 .268.646zm-1.545-1.644a.353.353 0 0 0-.264-.347 1.147 1.147 0 0 0-.328-.047c-.131-.003-.863-.004-.863-.004v.847s.741-.003.875-.008a.975.975 0 0 0 .316-.054c.107-.041.18-.095.213-.16a.472.472 0 0 0 .051-.227zm.292 1.628a.45.45 0 0 0-.085-.294.548.548 0 0 0-.293-.154 1.812 1.812 0 0 0-.389-.038c-.166-.002-.98-.003-.98-.003v.998s.868-.002 1.014-.004c.146-.002.28-.024.404-.07.124-.045.211-.104.257-.178a.451.451 0 0 0 .072-.257zM7.661 3.288L4.383 1.239A.25.25 0 0 0 4 1.451V3H1v3h1V4h2v1.549a.25.25 0 0 0 .383.212l3.278-2.049a.251.251 0 0 0 0-.424z"/><path d="M14.5 1h-7a.5.5 0 0 0-.5.5v.196l1 .625V2h6v6H9v-.5c0-.275-.225-.5-.5-.5H8V4.679l-1 .625V7H1.5a.5.5 0 0 0-.5.5v7a.5.5 0 0 0 .5.5h7c.275 0 .5-.225.5-.5v-.195l-1-.625V14H2V8h6v3.32l1-.625V9h5.5c.275 0 .5-.225.5-.5v-7a.5.5 0 0 0-.5-.5z"/></svg>