<svg xmlns="http://www.w3.org/2000/svg" viewBox="0 0 16 16"><path d="M9.87 4.651c.649.634.633 1.465.629 1.557.001.954-.413 1.508-.9 1.938C9.196 8.502 9 8.719 9 9v.5H7.5l.009-.504c0-.871.598-1.398 1.079-1.821.451-.398.483-.608.483-.994.001-.022.003-.383-.237-.611-.165-.155-.434-.235-.8-.235-.963 0-1.03.842-1.042 1.148L7 7H5.5v-.663C5.522 5.518 6.08 4 8.033 4c.965 0 1.531.354 1.837.651zM7.5 12H9v-1.5H7.5V12zM8 2C4.691 2 2 4.691 2 8s2.691 6 6 6 6-2.691 6-6-2.691-6-6-6m0-2a8 8 0 1 1 0 16A8 8 0 0 1 8 0z"/></svg>