<svg xmlns="http://www.w3.org/2000/svg" viewBox="0 0 32 32"><path d="M16 6.142C12.574 4.742 9.016 4 5.518 4c-1.871 0-3.72.2-5.518.6V26h2v2s12-2 12 2h4c0-4 12-2 12-2v-2h2V4.6c-1.798-.4-3.647-.6-5.517-.6-3.499 0-7.057.742-10.483 2.142zm-2 17.047A31.41 31.41 0 0 0 5.518 22c-.507 0-1.013.013-1.518.039V8.053C4.503 8.018 5.01 8 5.518 8c2.834 0 5.726.551 8.482 1.607v13.582zm14-1.15A29.509 29.509 0 0 0 26.483 22c-2.83 0-5.693.405-8.482 1.189V9.607C20.756 8.551 23.648 8 26.483 8c.507 0 1.014.018 1.517.053v13.986zm-8-10.367a29.246 29.246 0 0 1 6-.981v2c-1.994.113-4.006.44-6 .981v-2zm0 5.309A29.246 29.246 0 0 1 26 16v2c-1.994.113-4.006.44-6 .981v-2zm-8-3.309a29.246 29.246 0 0 0-6-.981v-2c1.994.113 4.006.44 6 .981v2zm0 5.309A29.246 29.246 0 0 0 6 18v-2c1.994.113 4.006.44 6 .981v2z"/></svg>