<svg xmlns="http://www.w3.org/2000/svg" viewBox="0 0 16 16"><path d="M7.436 15.62L8 16l.564-.38C13.328 12.407 15.76 9.428 16 6.434l-.004-.853c-.242-2.889-2.27-4.383-4.047-4.549C9.971.835 8.871 1.597 8 2.395c-.871-.797-1.971-1.56-3.949-1.363C2.273 1.197.247 2.692.004 5.581L0 6.434c.24 2.994 2.672 5.973 7.436 9.186zM2 5.663c.145-1.677 1.266-2.569 2.246-2.667C6.375 2.781 8 5 8 5s1.625-2.219 3.754-2.005c.98.099 2.102.99 2.246 2.667l.004.691c-.176 2.149-2.195 4.585-6.004 7.25-3.809-2.664-5.828-5.101-6.004-7.249L2 5.663z"/></svg>