<svg xmlns="http://www.w3.org/2000/svg" viewBox="0 0 16 16"><path d="M12 9.896h-.065c-.953 0-1.792.448-2.327 1.152l-.752-1.341.074-.106c2.353-3.39 3.779-5.628 4.126-6.476.533-1.305-.102-2.664-.428-3.229L8 8.175 3.371-.104c-.326.564-.961 1.923-.428 3.228.347.848 1.774 3.086 4.126 6.476l.074.107-.75 1.342a2.908 2.908 0 0 0-2.328-1.153L4 9.897c-1.657.035-3 1.343-3 2.999a3 3 0 0 0 3 2.999c1.657 0 2.986-1.343 3-2.999a3.113 3.113 0 0 0-.039-.496L8 10.934 9.039 12.4a3.01 3.01 0 0 0-.039.496c.014 1.656 1.343 2.999 3 2.999s3-1.343 3-2.999c0-1.657-1.344-2.964-3-3zm-8 4.5c-.827 0-1.5-.673-1.5-1.499 0-.823.673-1.482 1.533-1.5l.033-.001c.386 0 .746.147 1.013.417.276.277.426.658.422 1.07-.008.834-.681 1.513-1.501 1.513zm8 0c-.82 0-1.493-.679-1.5-1.513a1.482 1.482 0 0 1 .422-1.07 1.41 1.41 0 0 1 1.013-.417l.033.001c.859.018 1.532.677 1.532 1.5 0 .826-.673 1.499-1.5 1.499z"/></svg>