<svg xmlns="http://www.w3.org/2000/svg" viewBox="0 0 32 32"><path d="M24 0l8 8v24H16v-4h12V10h-6V4H10v6H6V0h18zM2.39 32l4.027-5.167-2.39-1.813L0 30.187 2.39 32zm13.559-17.949a6.998 6.998 0 0 1 0 9.898A6.97 6.97 0 0 1 11 26a6.978 6.978 0 0 1-4.949-2.051 6.998 6.998 0 0 1 0-9.898A6.978 6.978 0 0 1 11 12a6.97 6.97 0 0 1 4.949 2.051zM15 19a3.973 3.973 0 0 0-1.172-2.828A3.966 3.966 0 0 0 11 15c-1.066 0-2.072.416-2.828 1.172S7 17.934 7 19c0 1.068.416 2.072 1.172 2.828S9.934 23 11 23c1.07 0 2.074-.416 2.828-1.172A3.973 3.973 0 0 0 15 19z"/></svg>