<svg xmlns="http://www.w3.org/2000/svg" viewBox="0 0 16 16"><path d="M6.545 10.417l.637-.892-.707-.708-.892.638a2.95 2.95 0 0 0-.903-.375L4.5 8h-1l-.18 1.08a3 3 0 0 0-.903.375l-.892-.637-.707.707.637.893a2.96 2.96 0 0 0-.375.902L0 11.5v1l1.081.18a3 3 0 0 0 .375.903l-.638.892.707.707.892-.637a3 3 0 0 0 .903.375L3.5 16h1l.18-1.08c.324-.076.628-.204.903-.375l.892.637.708-.707-.637-.893c.171-.273.3-.578.375-.902L8 12.5v-1l-1.081-.18a2.973 2.973 0 0 0-.374-.903zM4 13.5a1.5 1.5 0 1 1 0-3 1.5 1.5 0 0 1 0 3zM16 16H9v-2h5V5h-3V2H5v4H3V0h9l4 4v12z"/></svg>