<svg xmlns="http://www.w3.org/2000/svg" viewBox="0 0 32 32"><path d="M10 14h6v2h-6v-2zm12-4H10v2h12v-2zM4 4h20v8h4V0H0v28h15v-4H4V4zm4 2H6v2h2V6zm14 0H10v2h12V6zM6 16h2v-2H6v2zm2-6H6v2h2v-2zm17.574 16.504l3.441 4.915 2.457-1.721-3.441-4.915-2.457 1.721zm.081-2.498c-.96.672-2.06.995-3.15.995a5.5 5.5 0 1 1 3.15-.995zm-.288-6.513A3.506 3.506 0 0 0 22.496 16a3.48 3.48 0 0 0-2.003.633 3.505 3.505 0 0 0-.86 4.875 3.508 3.508 0 0 0 2.872 1.493 3.48 3.48 0 0 0 2.003-.633 3.504 3.504 0 0 0 .859-4.875z"/></svg>