<svg xmlns="http://www.w3.org/2000/svg" viewBox="0 0 32 32"><path d="M9 14a9 9 0 1 0 0 18 9 9 0 0 0 0-18zm-2.393 2.43c-.857 1.924-1.35 3.755-1.482 5.57H2.08a7.01 7.01 0 0 1 4.527-5.57zM2.08 24h3.047c.134 1.816.631 3.648 1.488 5.573A7.008 7.008 0 0 1 2.08 24zm6.897 5.89C7.895 27.795 7.279 25.883 7.116 24h3.605c-.152 1.894-.733 3.813-1.744 5.89zM7.116 22c.163-1.883.78-3.795 1.861-5.889 1.011 2.077 1.593 3.995 1.744 5.889H7.116zm4.185 7.603c.825-1.936 1.308-3.778 1.435-5.603h3.184a7.008 7.008 0 0 1-4.619 5.603zM12.737 22c-.127-1.825-.61-3.667-1.434-5.603A7.01 7.01 0 0 1 15.921 22h-3.184zM24 0l8 8v24H20v-4h8V10h-6V4H10v8H6V0h18zm2 14H16v-2h10v2zm-6 4v-2h6v2h-6zm0 4v-2h6v2h-6z"/></svg>