<svg xmlns="http://www.w3.org/2000/svg" viewBox="0 0 32 32"><path d="M28 28a7.997 7.997 0 0 0-4.138-7.005 5.303 5.303 0 0 0 1.472-3.662 5.333 5.333 0 1 0-10.667 0c0 1.422.565 2.706 1.472 3.662A7.996 7.996 0 0 0 12 28v4h16v-4zm-8-13c1.287 0 2.333 1.047 2.333 2.333S21.287 19.667 20 19.667s-2.333-1.047-2.333-2.333S18.713 15 20 15zm-4 13c0-2.206 1.794-4 4-4s4 1.794 4 4h-8zm4-22l-4-3 4-3v2h8v2h-8v2zm10 3l-4 3v-2h-8V8h8V6l4 3zm-18 7H4c0-2.206 1.794-4 4-4a4.002 4.002 0 0 1 3.702 2.499l3.275-2.339a8.103 8.103 0 0 0-3.132-3.144 5.304 5.304 0 0 0 1.489-3.682 5.333 5.333 0 1 0-10.667-.001c0 1.422.565 2.706 1.472 3.662A7.996 7.996 0 0 0 0 16v4h12v-4zM8 3c1.287 0 2.333 1.047 2.333 2.333S9.287 7.667 8 7.667 5.667 6.62 5.667 5.333 6.713 3 8 3z"/></svg>