<svg xmlns="http://www.w3.org/2000/svg" viewBox="0 0 16 16"><path d="M11.562 9l2 2-4.9 4.9c-.1.1-.1.1-.199.1h-1.9v-1.9c0-.1 0-.1.1-.199L11.562 9zM13.764 7.2l1.6 1.6c.101.101.101.3 0 .4l-1.301 1.3-2-2 1.301-1.3c.099-.1.298-.1.4 0zM4.562 14v-.8l.4-.4c-1.7-.899-2.9-2.7-2.9-4.8 0-3 2.5-5.5 5.5-5.5 2.1 0 3.9 1.2 4.799 2.9l1.102-1.1c-1.199-2-3.4-3.3-5.9-3.3-3.9 0-7 3.1-7 7 0 2.8 1.6 5.2 4 6.3l-.001-.3z"/><path d="M8.764 8.9c0 .1-.201.3-.301.3h-2.9c-.2 0-.3-.2-.3-.3v-.6c0-.2.1-.3.3-.3h2V4.8c0-.2.1-.3.3-.3h.601c.199 0 .3.1.3.3v4.1z"/></svg>