<!-- Copyright © 2015 MODULUS Sp. z o. o. / FUTURAMO™ --><svg xmlns="http://www.w3.org/2000/svg" x="0px" y="0px" width="16px" height="16px" viewBox="0 0 32 32"><path  fill="#000000" d="M0,16C0,11.905,1.562,7.81,4.686,4.686C7.811,1.562,11.905,0,16,0c4.095,0,8.19,1.562,11.314,4.686L32,0v12 H20l4.485-4.485C22.219,5.248,19.205,4,16,4S9.781,5.248,7.515,7.515C5.175,9.854,4.006,12.927,4.006,16H0z M16,32 c4.095,0,8.19-1.562,11.314-4.686S32,20.095,32,16h-4.006c0,3.073-1.17,6.146-3.509,8.485C22.219,26.752,19.205,28,16,28 s-6.219-1.248-8.485-3.515L12,20H0l0,12l4.686-4.686C7.811,30.438,11.905,32,16,32z"></path></svg>