<?xml version="1.0" encoding="utf-8"?>
<!-- Generator: Adobe Illustrator 16.0.0, SVG Export Plug-In . SVG Version: 6.00 Build 0)  -->
<!DOCTYPE svg PUBLIC "-//W3C//DTD SVG 1.1//EN" "http://www.w3.org/Graphics/SVG/1.1/DTD/svg11.dtd">
<svg version="1.1" id="Layer_1" xmlns="http://www.w3.org/2000/svg" xmlns:xlink="http://www.w3.org/1999/xlink" x="0px" y="0px"
	 width="16px" height="16px" viewBox="0 0 16 16" enable-background="new 0 0 16 16" xml:space="preserve">
<polygon points="16,16 9,16 9,14 14,14 14,5 11,5 11,2 5,2 5,6 3,6 3,0 12,0 16,4 "/>
<path d="M1.5,13.5L0,12l1.5-1.5v1H3v1H1.5V13.5z M3.5,11h1V9.5h1L4,8L2.5,9.5h1V11z M4.5,14.5V13h-1v1.5h-1L4,16l1.5-1.5H4.5z
	 M6.5,11.5H5v1h1.5v1L8,12l-1.5-1.5V11.5z"/>
</svg>
