<?xml version="1.0" encoding="utf-8"?>
<!-- Generator: Adobe Illustrator 16.0.0, SVG Export Plug-In . SVG Version: 6.00 Build 0)  -->
<!DOCTYPE svg PUBLIC "-//W3C//DTD SVG 1.1//EN" "http://www.w3.org/Graphics/SVG/1.1/DTD/svg11.dtd">
<svg version="1.1" id="Layer_1" xmlns="http://www.w3.org/2000/svg" xmlns:xlink="http://www.w3.org/1999/xlink" x="0px" y="0px"
	 width="16px" height="16px" viewBox="0 0 16 16" enable-background="new 0 0 16 16" xml:space="preserve">
<path d="M6.545,10.417l0.637-0.892L6.475,8.817L5.583,9.455C5.309,9.283,5.004,9.155,4.68,9.08L4.5,8h-1L3.32,9.08
	C2.996,9.156,2.691,9.284,2.417,9.455L1.525,8.818L0.818,9.525l0.637,0.893c-0.171,0.273-0.3,0.578-0.375,0.902L0,11.5v1l1.081,0.18
	c0.076,0.324,0.204,0.629,0.375,0.903l-0.638,0.892l0.707,0.707l0.892-0.637c0.274,0.171,0.579,0.299,0.903,0.375L3.5,16h1
	l0.18-1.08c0.324-0.076,0.628-0.204,0.903-0.375l0.892,0.637l0.708-0.707l-0.637-0.893c0.171-0.273,0.3-0.578,0.375-0.902L8,12.5v-1
	l-1.081-0.18C6.844,10.996,6.716,10.691,6.545,10.417z M4,13.5c-0.829,0-1.5-0.672-1.5-1.5s0.671-1.5,1.5-1.5s1.5,0.672,1.5,1.5
	S4.829,13.5,4,13.5z M16,16H9v-2h5V5h-3V2H5v4H3V0h9l4,4V16z"/>
</svg>
