<?xml version="1.0" encoding="utf-8"?>
<!-- Generator: Adobe Illustrator 16.0.0, SVG Export Plug-In . SVG Version: 6.00 Build 0)  -->
<!DOCTYPE svg PUBLIC "-//W3C//DTD SVG 1.1//EN" "http://www.w3.org/Graphics/SVG/1.1/DTD/svg11.dtd">
<svg version="1.1" id="Layer_1" xmlns="http://www.w3.org/2000/svg" xmlns:xlink="http://www.w3.org/1999/xlink" x="0px" y="0px"
	 width="16px" height="16px" viewBox="0 0 16 16" enable-background="new 0 0 16 16" xml:space="preserve">
<path d="M9.87,4.651c0.649,0.634,0.633,1.465,0.629,1.557c0.001,0.954-0.413,1.508-0.9,1.938C9.196,8.502,9,8.719,9,9v0.5H7.5
	l0.009-0.504c0-0.871,0.598-1.398,1.079-1.821c0.451-0.398,0.483-0.608,0.483-0.994C9.072,6.159,9.074,5.798,8.834,5.57
	C8.669,5.415,8.4,5.335,8.034,5.335c-0.963,0-1.03,0.842-1.042,1.148L7,7H5.5V6.337C5.522,5.518,6.08,4,8.033,4
	C8.998,4,9.564,4.354,9.87,4.651z M7.5,12H9v-1.5H7.5V12z M8,2C4.691,2,2,4.691,2,8s2.691,6,6,6s6-2.691,6-6S11.309,2,8,2 M8,0
	c4.418,0,8,3.582,8,8c0,4.418-3.582,8-8,8c-4.418,0-8-3.582-8-8C0,3.582,3.582,0,8,0L8,0z"/>
</svg>
