<?xml version="1.0" encoding="utf-8"?>
<!-- Generator: Adobe Illustrator 16.0.0, SVG Export Plug-In . SVG Version: 6.00 Build 0)  -->
<!DOCTYPE svg PUBLIC "-//W3C//DTD SVG 1.1//EN" "http://www.w3.org/Graphics/SVG/1.1/DTD/svg11.dtd">
<svg version="1.1" id="Layer_1" xmlns="http://www.w3.org/2000/svg" xmlns:xlink="http://www.w3.org/1999/xlink" x="0px" y="0px"
	 width="16px" height="16px" viewBox="0 0 16 16" enable-background="new 0 0 16 16" xml:space="preserve">
<g>
	<path d="M11.562,9l2,2l-4.9,4.9c-0.1,0.1-0.1,0.1-0.199,0.1h-1.9v-1.9c0-0.1,0-0.1,0.1-0.199L11.562,9z"/>
	<path d="M13.764,7.2l1.6,1.6c0.101,0.101,0.101,0.3,0,0.4l-1.301,1.3l-2-2l1.301-1.3C13.463,7.1,13.662,7.1,13.764,7.2z"/>
	<path d="M4.562,14v-0.8l0.4-0.4c-1.7-0.899-2.9-2.7-2.9-4.8c0-3,2.5-5.5,5.5-5.5c2.1,0,3.9,1.2,4.799,2.9l1.102-1.1
		c-1.199-2-3.4-3.3-5.9-3.3c-3.9,0-7,3.1-7,7c0,2.8,1.6,5.2,4,6.3L4.562,14L4.562,14z"/>
	<path d="M8.764,8.9c0,0.1-0.201,0.3-0.301,0.3h-2.9c-0.2,0-0.3-0.2-0.3-0.3V8.3c0-0.2,0.1-0.3,0.3-0.3h2V4.8c0-0.2,0.1-0.3,0.3-0.3
		h0.601c0.199,0,0.3,0.1,0.3,0.3V8.9L8.764,8.9z"/>
</g>
</svg>
