<?xml version="1.0" encoding="utf-8"?>
<!-- Generator: Adobe Illustrator 16.0.0, SVG Export Plug-In . SVG Version: 6.00 Build 0)  -->
<!DOCTYPE svg PUBLIC "-//W3C//DTD SVG 1.1//EN" "http://www.w3.org/Graphics/SVG/1.1/DTD/svg11.dtd">
<svg version="1.1" id="Layer_1" xmlns="http://www.w3.org/2000/svg" xmlns:xlink="http://www.w3.org/1999/xlink" x="0px" y="0px"
	 width="16px" height="16px" viewBox="0 0 16 16" enable-background="new 0 0 16 16" xml:space="preserve">
<path d="M9,11h1v1H6v-1h1V8H6V7h3V11z M9,4H7v2h2V4z M8,14c3.309,0,6-2.691,6-6s-2.691-6-6-6S2,4.691,2,8S4.691,14,8,14 M8,0
	c4.419,0,8,3.582,8,8s-3.581,8-8,8s-8-3.582-8-8S3.581,0,8,0"/>
</svg>
