<?xml version="1.0" encoding="utf-8"?>
<!-- Generator: Adobe Illustrator 16.0.0, SVG Export Plug-In . SVG Version: 6.00 Build 0)  -->
<!DOCTYPE svg PUBLIC "-//W3C//DTD SVG 1.1//EN" "http://www.w3.org/Graphics/SVG/1.1/DTD/svg11.dtd">
<svg version="1.1" id="Layer_1" xmlns:sketch="http://www.bohemiancoding.com/sketch/ns"
	 xmlns="http://www.w3.org/2000/svg" xmlns:xlink="http://www.w3.org/1999/xlink" x="0px" y="0px" width="16px" height="16px"
	 viewBox="0 0 16 16" enable-background="new 0 0 16 16" xml:space="preserve">
<title>actions-document-paste-after-v1</title>
<desc>Created with Sketch.</desc>
<g>
	<path d="M15,7.883v1H4v-1H15L15,7.883z M15,4.883v1H4v-1H15L15,4.883z M15,1.883v1H4v-1H15z M8,10.884v3H1v-3H8z M2,11.884h5v1H2
		V11.884z M8.991,12.749v-0.867H11v-0.998c0.053-0.225,0.256-0.338,0.412-0.239l3.081,1.448c0.147,0.093,0.147,0.306,0,0.398
		l-3.081,1.59c-0.156,0.099-0.359-0.017-0.412-0.199v-1.133H8.991z"/>
</g>
</svg>
