<?xml version="1.0" encoding="utf-8"?>
<!-- Generator: Adobe Illustrator 16.0.0, SVG Export Plug-In . SVG Version: 6.00 Build 0)  -->
<!DOCTYPE svg PUBLIC "-//W3C//DTD SVG 1.1//EN" "http://www.w3.org/Graphics/SVG/1.1/DTD/svg11.dtd">
<svg version="1.1" id="Layer_1" xmlns="http://www.w3.org/2000/svg" xmlns:xlink="http://www.w3.org/1999/xlink" x="0px" y="0px"
	 width="16px" height="16px" viewBox="0 0 16 16" enable-background="new 0 0 16 16" xml:space="preserve">
<path d="M10.025,10.025c-1.367,1.367-1.367,3.582,0,4.949s3.582,1.367,4.949,0s1.367-3.583,0-4.949
	C13.607,8.658,11.393,8.658,10.025,10.025z M14.621,13.914l-0.707,0.707L12.5,13.207l-1.414,1.414l-0.707-0.707l1.414-1.414
	l-1.414-1.414l0.707-0.707l1.414,1.414l1.414-1.414l0.707,0.707L13.207,12.5L14.621,13.914z M8,3h1v1H8V3z M2,7h9v1h2V3l-3-3H0v14h8
	v-2H2V7z M3,2h7v3H3V2z"/>
</svg>
