<!-- Copyright © 2015 MODULUS Sp. z o. o. / FUTURAMO™ --><svg xmlns="http://www.w3.org/2000/svg" x="0px" y="0px" width="16px" height="16px" viewBox="0 0 32 32"><path  fill="#000000" d="M20,20v-2h6v2H20z M6,0v12h4V4h12v6h6v18H18v4h14V8l-8-8H6z M26,14h-8v2h8V14z M8,32c4.418,0,8-3.582,8-8h-2 c0,3.309-2.692,6-6,6c-1.654,0-3.133-0.694-4.219-1.781L6,26H0l0,6l2.349-2.349C3.795,31.101,5.791,32,8,32z M8,18 c1.654,0,3.133,0.694,4.219,1.781L10,22h6v-6l-2.349,2.349C12.205,16.899,10.209,16,8,16c-4.418,0-8,3.582-8,8h2 C2,20.691,4.692,18,8,18z"></path></svg>