<!-- Copyright © 2015 MODULUS Sp. z o. o. / FUTURAMO™ --><svg xmlns="http://www.w3.org/2000/svg" x="0px" y="0px" width="16px" height="16px" viewBox="0 0 32 32"><path  fill="#000000" d="M24,0l8,8v24H16v-4h12V10h-6V4H10v6H6V0H24z M2.39,32l4.027-5.167l-2.39-1.813L0,30.187L2.39,32z  M15.949,14.051c2.734,2.734,2.734,7.166,0,9.898C14.584,25.316,12.793,26,11,26c-1.791,0-3.582-0.684-4.949-2.051 c-2.734-2.732-2.734-7.164,0-9.898C7.418,12.684,9.209,12,11,12C12.793,12,14.584,12.684,15.949,14.051z M15,19 c0-1.068-0.416-2.072-1.172-2.828C13.074,15.416,12.07,15,11,15c-1.066,0-2.072,0.416-2.828,1.172S7,17.934,7,19 c0,1.068,0.416,2.072,1.172,2.828S9.934,23,11,23c1.07,0,2.074-0.416,2.828-1.172C14.584,21.072,15,20.068,15,19z"></path></svg>