<!-- Copyright © 2015 MODULUS Sp. z o. o. / FUTURAMO™ --><svg xmlns="http://www.w3.org/2000/svg" x="0px" y="0px" width="16px" height="16px" viewBox="0 0 32 32"><path  fill="#000000" d="M9,14c-4.971,0-9,4.03-9,9s4.029,9,9,9s9-4.03,9-9S13.971,14,9,14z M6.607,16.43 C5.75,18.354,5.257,20.185,5.125,22H2.08C2.451,19.423,4.226,17.301,6.607,16.43z M2.08,24h3.047 c0.134,1.816,0.631,3.648,1.488,5.573C4.23,28.704,2.451,26.58,2.08,24z M8.977,29.89C7.895,27.795,7.279,25.883,7.116,24h3.605 C10.569,25.894,9.988,27.813,8.977,29.89z M7.116,22c0.163-1.883,0.78-3.795,1.861-5.889c1.011,2.077,1.593,3.995,1.744,5.889H7.116 z M11.301,29.603c0.825-1.936,1.308-3.778,1.435-5.603h3.184C15.544,26.61,13.728,28.755,11.301,29.603z M12.737,22 c-0.127-1.825-0.61-3.667-1.434-5.603c2.426,0.849,4.242,2.993,4.618,5.603H12.737z M24,0l8,8v24H20v-4h8V10h-6V4H10v8H6V0H24z  M26,14H16v-2h10V14z M20,18v-2h6v2H20z M20,22v-2h6v2H20z"></path></svg>