<!-- Copyright © 2015 MODULUS Sp. z o. o. / FUTURAMO™ --><svg xmlns="http://www.w3.org/2000/svg" x="0px" y="0px" width="16px" height="16px" viewBox="0 0 32 32"><path  fill="#000000" d="M16,6.142C12.574,4.742,9.016,4,5.518,4C3.647,4,1.798,4.2,0,4.6C0,11.933,0,18.667,0,26c0,0,0.883,0,2,0v2 c0,0,12-2,12,2h4c0-4,12-2,12-2v-2c1.117,0,2,0,2,0c0-7.333,0-14.067,0-21.4C30.202,4.2,28.353,4,26.483,4 C22.984,4,19.426,4.742,16,6.142z M14,23.189C11.211,22.405,8.348,22,5.518,22C5.011,22,4.505,22.013,4,22.039V8.053 C4.503,8.018,5.01,8,5.518,8C8.352,8,11.244,8.551,14,9.607C14,14.134,14,18.662,14,23.189z M28,22.039 C27.495,22.013,26.989,22,26.483,22c-2.83,0-5.693,0.405-8.482,1.189V9.607C20.756,8.551,23.648,8,26.483,8 C26.99,8,27.497,8.018,28,8.053V22.039z M20,11.672c1.994-0.541,4.006-0.868,6-0.981v2c-1.994,0.113-4.006,0.44-6,0.981V11.672z  M20,16.981c1.994-0.541,4.006-0.868,6-0.981v2c-1.994,0.113-4.006,0.44-6,0.981V16.981z M12,13.672 c-1.994-0.541-4.006-0.868-6-0.981v-2c1.994,0.113,4.006,0.44,6,0.981V13.672z M12,18.981C10.006,18.44,7.994,18.113,6,18v-2 c1.994,0.113,4.006,0.44,6,0.981V18.981z"></path></svg>