<?xml version="1.0" encoding="utf-8"?>
<!-- Generator: Adobe Illustrator 16.0.0, SVG Export Plug-In . SVG Version: 6.00 Build 0)  -->
<!DOCTYPE svg PUBLIC "-//W3C//DTD SVG 1.1//EN" "http://www.w3.org/Graphics/SVG/1.1/DTD/svg11.dtd">
<svg version="1.1" id="Layer_1" xmlns="http://www.w3.org/2000/svg" xmlns:xlink="http://www.w3.org/1999/xlink" x="0px" y="0px"
	 width="16px" height="16px" viewBox="0 0 16 16" enable-background="new 0 0 16 16" xml:space="preserve">
<path d="M7.436,15.62L8,16l0.564-0.38C13.328,12.407,15.76,9.428,16,6.434l-0.004-0.853c-0.242-2.889-2.27-4.383-4.047-4.549
	C9.971,0.835,8.871,1.597,8,2.395c-0.871-0.797-1.971-1.56-3.949-1.363C2.273,1.197,0.247,2.692,0.004,5.581L0,6.434
	C0.24,9.428,2.672,12.407,7.436,15.62z M2,5.663c0.145-1.677,1.266-2.569,2.246-2.667C6.375,2.781,8,5,8,5s1.625-2.219,3.754-2.005
	c0.98,0.099,2.102,0.99,2.246,2.667l0.004,0.691c-0.176,2.149-2.195,4.585-6.004,7.25c-3.809-2.664-5.828-5.101-6.004-7.249L2,5.663
	z"/>
</svg>
