<?xml version="1.0" encoding="utf-8"?>
<!-- Generator: Adobe Illustrator 16.0.0, SVG Export Plug-In . SVG Version: 6.00 Build 0)  -->
<!DOCTYPE svg PUBLIC "-//W3C//DTD SVG 1.1//EN" "http://www.w3.org/Graphics/SVG/1.1/DTD/svg11.dtd">
<svg version="1.1" id="Layer_1" xmlns="http://www.w3.org/2000/svg" xmlns:xlink="http://www.w3.org/1999/xlink" x="0px" y="0px"
	 width="16px" height="16px" viewBox="0 0 16 16" enable-background="new 0 0 16 16" xml:space="preserve">
<path d="M6.349,14H2V6h8v0.349C10.626,6.127,11.298,6,12,6V5.414l2-2v2.935c0.746,0.264,1.423,0.67,2,1.188V0H4.62L0,4v12h7.536
	C7.019,15.423,6.613,14.746,6.349,14z M5.38,2h7.206l-2,2H3.13L5.38,2z"/>
<path d="M9,12c0-0.828,0.342-1.572,0.888-2.112L11,11V8H8l1.186,1.186C8.458,9.905,8,10.895,8,12c0,2.209,1.791,4,4,4v-1
	C10.346,15,9,13.654,9,12z"/>
<path d="M12,8v1c1.654,0,3,1.346,3,3c0,0.828-0.341,1.572-0.888,2.112L13,13v3h3l-1.186-1.186C15.542,14.095,16,13.105,16,12
	C16,9.791,14.209,8,12,8z"/>
</svg>
