<?xml version="1.0" encoding="utf-8"?>
<!-- Generator: Adobe Illustrator 16.0.0, SVG Export Plug-In . SVG Version: 6.00 Build 0)  -->
<!DOCTYPE svg PUBLIC "-//W3C//DTD SVG 1.1//EN" "http://www.w3.org/Graphics/SVG/1.1/DTD/svg11.dtd">
<svg version="1.1" id="Layer_1" xmlns="http://www.w3.org/2000/svg" xmlns:xlink="http://www.w3.org/1999/xlink" x="0px" y="0px"
	 width="16px" height="16px" viewBox="0 0 16 16" enable-background="new 0 0 16 16" xml:space="preserve">
<path d="M15.98,8.062c-0.328,4.444-4.619,7.677-8.986,6.792V12.79c0.377,0.106,0.765,0.177,1.156,0.202
	c2.271,0.148,4.452-1.186,5.375-3.26c0.927-2.08,0.438-4.576-1.188-6.165s-4.137-2.015-6.194-1.04
	c-2.068,0.98-3.334,3.196-3.127,5.474H1.016C0.733,3.731,4.203,0,8.496,0C12.804,0,16.297,3.77,15.98,8.062z M8,4v4h4V7H9V4H8z
	 M4.588,9l-1.569,1.569L1.412,9L0,10.412l1.607,1.568L0,13.588L1.412,15l1.607-1.607L4.588,15L6,13.588L4.431,11.98L6,10.412
	L4.588,9z"/>
</svg>
