<!-- Copyright © 2015 MODULUS Sp. z o. o. / FUTURAMO™ --><svg xmlns="http://www.w3.org/2000/svg" x="0px" y="0px" width="16px" height="16px" viewBox="0 0 32 32"><path  fill="#000000" d="M26.18,9.669l2.549-3.567L25.9,3.271L22.332,5.82c-1.099-0.685-2.313-1.197-3.612-1.499L18,0h-4l-0.72,4.321 c-1.299,0.302-2.515,0.814-3.613,1.5L6.1,3.271l-2.828,2.83l2.548,3.567c-0.685,1.099-1.196,2.313-1.498,3.611L0,14l0.002,4 l4.319,0.72c0.302,1.299,0.813,2.514,1.499,3.612L3.271,25.9l2.83,2.826l3.566-2.547c1.099,0.685,2.313,1.197,3.612,1.499L14,32h4 l0.72-4.321c1.3-0.302,2.515-0.814,3.613-1.5l3.567,2.55l2.828-2.828l-2.549-3.569c0.686-1.099,1.197-2.313,1.499-3.611L32,18v-4 l-4.321-0.72C27.377,11.982,26.865,10.768,26.18,9.669z M16,24c-4.418,0-8-3.582-8-8c0-4.418,3.582-8,8-8s8,3.582,8,8 C24,20.418,20.418,24,16,24z"></path></svg>