<!-- Copyright © 2015 MODULUS Sp. z o. o. / FUTURAMO™ --><svg xmlns="http://www.w3.org/2000/svg" x="0px" y="0px" width="16px" height="16px" viewBox="0 0 32 32"><path  fill="#000000" d="M24,0l8,8v24H6v-6h4v2h18V10h-6V4H10v8H6V0H24z M6,16v6c0,1.105-0.895,2-2,2H0V14h4C5.105,14,6,14.895,6,16z  M4,22v-6H2v6H4z M22,16v-2h-4c-1.105,0-2,0.895-2,2v6c0,1.105,0.895,2,2,2h4v-2h-4v-6H22z M14,16v6c0,1.105-0.895,2-2,2h-2 c-1.105,0.002-2-0.895-2-2h0.004v-5.996C8,14.898,8.895,14.002,10,14h2C13.105,13.998,14,14.895,14,16z M12,16.001l-2,0.001V22h2 V16.001z"></path></svg>