<!-- Copyright © 2015 MODULUS Sp. z o. o. / FUTURAMO™ --><svg xmlns="http://www.w3.org/2000/svg" x="0px" y="0px" width="16px" height="16px" viewBox="0 0 32 32"><path  fill="#000000" d="M28,28c0-3.017-1.672-5.642-4.138-7.005c0.907-0.956,1.472-2.24,1.472-3.662C25.333,14.388,22.945,12,20,12 s-5.333,2.388-5.333,5.333c0,1.422,0.565,2.706,1.472,3.662C13.672,22.358,12,24.983,12,28v4h16V28z M20,15 c1.287,0,2.333,1.047,2.333,2.333S21.287,19.667,20,19.667s-2.333-1.047-2.333-2.333S18.713,15,20,15z M16,28c0-2.206,1.794-4,4-4 s4,1.794,4,4H16z M20,6l-4-3l4-3v2h8v2h-8V6z M30,9l-4,3v-2h-8V8h8V6L30,9z M12,16H4c0-2.206,1.794-4,4-4 c1.674,0,3.106,1.036,3.702,2.499l3.275-2.339c-0.729-1.321-1.82-2.408-3.132-3.144c0.918-0.958,1.489-2.251,1.489-3.682 C13.333,2.388,10.945,0,8,0S2.667,2.388,2.667,5.333c0,1.422,0.565,2.706,1.472,3.662C1.672,10.358,0,12.983,0,16v4h12V16z M8,3 c1.287,0,2.333,1.047,2.333,2.333S9.287,7.667,8,7.667S5.667,6.62,5.667,5.333S6.713,3,8,3z"></path></svg>