<?xml version="1.0" encoding="utf-8"?>
<!-- Generator: Adobe Illustrator 16.0.0, SVG Export Plug-In . SVG Version: 6.00 Build 0)  -->
<!DOCTYPE svg PUBLIC "-//W3C//DTD SVG 1.1//EN" "http://www.w3.org/Graphics/SVG/1.1/DTD/svg11.dtd">
<svg version="1.1" id="Layer_1" xmlns="http://www.w3.org/2000/svg" xmlns:xlink="http://www.w3.org/1999/xlink" x="0px" y="0px"
	 width="16px" height="16px" viewBox="0 0 16 16" enable-background="new 0 0 16 16" xml:space="preserve">
<path d="M12,9.896c-0.021,0-0.043,0-0.065,0c-0.953,0-1.792,0.448-2.327,1.152L8.856,9.707l0.074-0.106
	c2.353-3.39,3.779-5.628,4.126-6.476c0.533-1.305-0.102-2.664-0.428-3.229L8,8.175L3.371-0.104C3.045,0.46,2.41,1.819,2.943,3.124
	C3.29,3.972,4.717,6.21,7.069,9.6l0.074,0.107l-0.75,1.342c-0.535-0.704-1.375-1.153-2.328-1.153c-0.021,0-0.043,0-0.065,0.001
	c-1.657,0.035-3,1.343-3,2.999s1.343,2.999,3,2.999c1.657,0,2.986-1.343,3-2.999c0.001-0.169-0.014-0.335-0.039-0.496L8,10.934
	L9.039,12.4C9.014,12.562,8.998,12.727,9,12.896c0.014,1.656,1.343,2.999,3,2.999s3-1.343,3-2.999C15,11.239,13.656,9.932,12,9.896z
	 M4,14.396c-0.827,0-1.5-0.673-1.5-1.499c0-0.823,0.673-1.482,1.533-1.5l0.033-0.001c0.386,0,0.746,0.147,1.013,0.417
	c0.276,0.277,0.426,0.658,0.422,1.07C5.493,13.717,4.82,14.396,4,14.396z M12,14.396c-0.82,0-1.493-0.679-1.5-1.513
	c-0.004-0.412,0.146-0.792,0.422-1.07c0.267-0.27,0.626-0.417,1.013-0.417l0.033,0.001c0.859,0.018,1.532,0.677,1.532,1.5
	C13.5,13.723,12.827,14.396,12,14.396z"/>
</svg>
