<?xml version="1.0" encoding="utf-8"?>
<!-- Generator: Adobe Illustrator 16.0.0, SVG Export Plug-In . SVG Version: 6.00 Build 0)  -->
<!DOCTYPE svg PUBLIC "-//W3C//DTD SVG 1.1//EN" "http://www.w3.org/Graphics/SVG/1.1/DTD/svg11.dtd">
<svg version="1.1" id="Layer_1" xmlns="http://www.w3.org/2000/svg" xmlns:xlink="http://www.w3.org/1999/xlink" x="0px" y="0px"
	 width="16px" height="16px" viewBox="0 0 16 16" enable-background="new 0 0 16 16" xml:space="preserve">
<path d="M5.5,2C7.43,2,9,3.57,9,5.5S7.43,9,5.5,9S2,7.43,2,5.5S3.57,2,5.5,2 M5.5,0C2.462,0,0,2.462,0,5.5C0,8.537,2.462,11,5.5,11
	C8.537,11,11,8.537,11,5.5C11,2.462,8.537,0,5.5,0L5.5,0z M9.364,10.77L13.596,15L15,13.594l-4.229-4.229L9.364,10.77z"/>
</svg>
