<?xml version="1.0" encoding="utf-8"?>
<!-- Generator: Adobe Illustrator 16.0.0, SVG Export Plug-In . SVG Version: 6.00 Build 0)  -->
<!DOCTYPE svg PUBLIC "-//W3C//DTD SVG 1.1//EN" "http://www.w3.org/Graphics/SVG/1.1/DTD/svg11.dtd">
<svg version="1.1" id="Layer_1" xmlns="http://www.w3.org/2000/svg" xmlns:xlink="http://www.w3.org/1999/xlink" x="0px" y="0px"
	 width="16px" height="16px" viewBox="0 0 16 16" enable-background="new 0 0 16 16" xml:space="preserve">
<path d="M8,3C3,3,0,8,0,8s3,5,8,5s8-5,8-5S13,3,8,3z M8,12c-2.209,0-4-1.79-4-4s1.791-4,4-4c2.211,0,4,1.79,4,4S10.211,12,8,12z
	 M10,8c0,1.104-0.896,2-2,2S6,9.104,6,8c0-1.104,0.896-2,2-2S10,6.896,10,8z"/>
</svg>
