<!-- Copyright © 2015 MODULUS Sp. z o. o. / FUTURAMO™ --><svg xmlns="http://www.w3.org/2000/svg" x="0px" y="0px" width="16px" height="16px" viewBox="0 0 32 32"><path  fill="#000000" d="M16,4.006c3.073,0,6.146,1.17,8.485,3.509C26.752,9.781,28,12.795,28,16s-1.248,6.219-3.515,8.485 c-4.679,4.679-12.292,4.679-16.971,0C5.248,22.219,4,19.205,4,16s1.248-6.219,3.515-8.485L12,12V0L0,0l4.686,4.686 C1.562,7.811,0,11.905,0,16c0,4.095,1.562,8.19,4.686,11.314c6.248,6.248,16.379,6.248,22.627,0C30.438,24.19,32,20.095,32,16 c0-4.095-1.562-8.19-4.686-11.314C24.19,1.562,20.095,0,16,0V4.006z"></path></svg>