<?xml version="1.0" encoding="utf-8"?>
<!-- Generator: Adobe Illustrator 16.0.0, SVG Export Plug-In . SVG Version: 6.00 Build 0)  -->
<!DOCTYPE svg PUBLIC "-//W3C//DTD SVG 1.1//EN" "http://www.w3.org/Graphics/SVG/1.1/DTD/svg11.dtd">
<svg version="1.1" id="Layer_1" xmlns="http://www.w3.org/2000/svg" xmlns:xlink="http://www.w3.org/1999/xlink" x="0px" y="0px"
	 width="16px" height="16px" viewBox="0 0 16 16" enable-background="new 0 0 16 16" xml:space="preserve">
<path d="M8,2.003c1.537,0,3.073,0.585,4.242,1.754C13.376,4.891,14,6.397,14,8s-0.624,3.109-1.758,4.242
	c-2.34,2.34-6.146,2.34-8.485,0C2.624,11.109,2,9.603,2,8s0.624-3.109,1.757-4.243L6,6V0H0l2.343,2.343C0.781,3.905,0,5.953,0,8
	c0,2.047,0.781,4.096,2.343,5.657c3.124,3.124,8.19,3.124,11.313,0C15.219,12.096,16,10.047,16,8c0-2.047-0.781-4.095-2.343-5.657
	C12.096,0.781,10.047,0,8,0V2.003z"/>
</svg>
