<!-- Copyright © 2015 MODULUS Sp. z o. o. / FUTURAMO™ --><svg xmlns="http://www.w3.org/2000/svg" x="0px" y="0px" width="16px" height="16px" viewBox="0 0 32 32"><path  fill="#000000" d="M7,32c3.866,0,7-3.134,7-7s-3.134-7-7-7c-3.866,0-7,3.134-7,7C0,28.866,3.134,32,7,32z M3.414,23.414 l2.828,2.829L10.485,22l1.414,1.414l-5.657,5.657L2,24.829L3.414,23.414z M24-0.002l8,8v24H18v-4h10v-18h-6v-6H10v10H6v-14H24z  M25.998,17.998H13.999v-2h11.999V17.998z M15.998,21.998v-2h10v2H15.998z M25.998,13.998H12v-2h13.998V13.998z"></path></svg>