<?xml version="1.0" encoding="utf-8"?>
<!-- Generator: Adobe Illustrator 16.0.0, SVG Export Plug-In . SVG Version: 6.00 Build 0)  -->
<!DOCTYPE svg PUBLIC "-//W3C//DTD SVG 1.1//EN" "http://www.w3.org/Graphics/SVG/1.1/DTD/svg11.dtd">
<svg version="1.1" id="Layer_1" xmlns:sketch="http://www.bohemiancoding.com/sketch/ns"
	 xmlns="http://www.w3.org/2000/svg" xmlns:xlink="http://www.w3.org/1999/xlink" x="0px" y="0px" width="16px" height="16px"
	 viewBox="0 0 16 16" enable-background="new 0 0 16 16" xml:space="preserve">
<title>actions-edit-unhide</title>
<desc>Created with Sketch.</desc>
<g>
	<path d="M1,8L1,8c0,2.205,1.792,4,3.997,4h6.007C13.207,12,15,10.207,15,8c0-2.206-1.791-4-3.996-4H4.997C2.792,4,1,5.792,1,8L1,8z
		 M0,8c0-2.761,2.242-5,4.997-5h6.007C13.764,3,16,5.244,16,8c0,2.762-2.242,5-4.996,5H4.997C2.237,13,0,10.756,0,8L0,8z"/>
	<circle cx="5" cy="8" r="3"/>
</g>
</svg>
