<?xml version="1.0" encoding="utf-8"?>
<!-- Generator: Adobe Illustrator 16.0.0, SVG Export Plug-In . SVG Version: 6.00 Build 0)  -->
<!DOCTYPE svg PUBLIC "-//W3C//DTD SVG 1.1//EN" "http://www.w3.org/Graphics/SVG/1.1/DTD/svg11.dtd">
<svg version="1.1" id="Layer_1" xmlns="http://www.w3.org/2000/svg" xmlns:xlink="http://www.w3.org/1999/xlink" x="0px" y="0px"
	 width="16px" height="16px" viewBox="0 0 16 16" enable-background="new 0 0 16 16" xml:space="preserve">
<path d="M16,7.5c0,0.169-0.012,0.335-0.029,0.5h-2.021C13.982,7.838,14,7.671,14,7.5C14,6.121,12.879,5,11.5,5
	c-0.205,0-0.425,0.036-0.692,0.113l-0.783,0.228l-0.38-0.722C9.119,3.62,8.106,3,7,3C5.599,3,4.367,3.995,4.071,5.365L3.95,5.931
	L3.398,6.106C2.562,6.374,2,7.135,2,8c0,1.103,0.897,2,2,2h4v2H4c-2.206,0-4-1.794-4-4c0-1.549,0.89-2.929,2.263-3.589
	C2.938,2.405,4.849,1,7,1c1.593,0,3.067,0.763,4.004,2.032C13.702,2.681,15.999,4.854,16,7.5z M13,16v-3h2l-3-4l-3,4h2v3H13z"/>
</svg>
