<?xml version="1.0" encoding="utf-8"?>
<!-- Generator: Adobe Illustrator 16.0.0, SVG Export Plug-In . SVG Version: 6.00 Build 0)  -->
<!DOCTYPE svg PUBLIC "-//W3C//DTD SVG 1.1//EN" "http://www.w3.org/Graphics/SVG/1.1/DTD/svg11.dtd">
<svg version="1.1" id="Layer_1" xmlns:sketch="http://www.bohemiancoding.com/sketch/ns"
	 xmlns="http://www.w3.org/2000/svg" xmlns:xlink="http://www.w3.org/1999/xlink" x="0px" y="0px" width="16px" height="16px"
	 viewBox="0 0 16 16" enable-background="new 0 0 16 16" xml:space="preserve">
<title>actions-document-paste-before-v8</title>
<desc>Created with Sketch.</desc>
<g>
	<path d="M15,13v1H4v-1H15L15,13z M15,10v1H4v-1H15L15,10z M15,7v1H4V7H15z M8,2v3H1V2H8z M2,3h5v1H2V3z M8.991,3.865V2.998H11V2
		c0.053-0.225,0.256-0.337,0.412-0.24l3.081,1.448c0.147,0.092,0.147,0.306,0,0.398l-3.081,1.59C11.256,5.294,11.053,5.182,11,4.998
		V3.865H8.991z"/>
</g>
</svg>
