<!-- Copyright © 2015 MODULUS Sp. z o. o. / FUTURAMO™ --><svg xmlns="http://www.w3.org/2000/svg" x="0px" y="0px" width="16px" height="16px" viewBox="0 0 32 32"><path  fill="#000000" d="M24.212,14.775C26.479,13.363,28,10.867,28,8c0-4.418-3.582-8-8-8c-3.996,0-7.279,2.938-7.876,6.767 C11.18,6.292,10.129,6,9,6c-3.866,0-7,3.134-7,7c0,2.463,1.279,4.62,3.202,5.867C2.137,20.302,0,23.392,0,27v5h32v-6 C32,20.857,28.759,16.483,24.212,14.775z M20,4c2.206,0,4,1.794,4,4c0,2.206-1.794,4-4,4s-4-1.794-4-4C16,5.794,17.794,4,20,4z  M15.751,14.755c0.012,0.007,0.025,0.013,0.037,0.02c-0.017,0.006-0.034,0.012-0.05,0.018C15.741,14.78,15.747,14.768,15.751,14.755 z M8,26v3H3v-2c0-3.308,2.692-6,6-6c0.033,0,0.064,0.009,0.097,0.01C8.399,22.531,8,24.217,8,26z M9,17c-2.206,0-4-1.794-4-4 c0-2.206,1.794-4,4-4s4,1.794,4,4C13,15.206,11.206,17,9,17z M28,28H12v-2c0-4.411,3.589-8,8-8s8,3.589,8,8V28z"></path></svg>