<!-- Copyright © 2015 MODULUS Sp. z o. o. / FUTURAMO™ --><svg xmlns="http://www.w3.org/2000/svg" x="0px" y="0px" width="16px" height="16px" viewBox="0 0 32 32"><path  fill="#000000" d="M28.338,21.383c-1.718-3.197-4.648-5.55-8.026-6.661c2.214-1.423,3.69-3.894,3.69-6.722c0-4.418-3.581-8-8-8 c-4.418,0-8,3.582-8,8c0,2.827,1.475,5.298,3.688,6.721c-3.218,1.056-6.033,3.235-7.777,6.213C1.877,24.409,2.001,28.13,2.001,32 h27.996C29.997,28.316,30.145,24.746,28.338,21.383z M16.001,4c2.206,0,4,1.794,4,4s-1.794,4-4,4c-2.206,0-4-1.794-4-4 S13.796,4,16.001,4z M6.057,28c0.109-1.886,0.422-3.533,1.307-5.045c1.555-2.656,4.378-4.478,7.412-4.871 c0.014,0.018,0.015,0.031,0.001,0.039l-2.246,5.732L16,27l3.469-3.145l-2.246-5.732c-0.015-0.008-0.015-0.021-0.005-0.037 c3.172,0.404,6.069,2.346,7.597,5.19c0.758,1.411,1.034,2.985,1.133,4.724H6.057z"></path></svg>