<!-- Copyright © 2015 MODULUS Sp. z o. o. / FUTURAMO™ --><svg xmlns="http://www.w3.org/2000/svg" x="0px" y="0px" width="16px" height="16px" viewBox="0 0 32 32"><path  fill="#000000" d="M20.312,14.722c2.214-1.423,3.69-3.894,3.69-6.722c0-4.418-3.581-8-8-8c-4.418,0-8,3.582-8,8 c0,2.827,1.475,5.298,3.688,6.721c-3.218,1.056-6.033,3.235-7.777,6.213C1.877,24.409,2.001,28.13,2.001,32h27.996 c0-3.684,0.148-7.254-1.659-10.617C26.621,18.186,23.691,15.833,20.312,14.722z M16.001,4c2.206,0,4,1.794,4,4s-1.794,4-4,4 c-2.206,0-4-1.794-4-4S13.796,4,16.001,4z M6.057,28c0.109-1.886,0.422-3.533,1.307-5.045C9.127,19.945,12.517,18,15.999,18 c3.633,0,7.094,2.071,8.815,5.276c0.758,1.411,1.034,2.985,1.133,4.724H6.057z"></path></svg>