<svg xmlns="http://www.w3.org/2000/svg" viewBox="0 0 64 64"><path fill="#999" d="M36.312 30.723c2.215-1.424 3.689-3.895 3.689-6.723a8 8 0 0 0-16 0c0 2.828 1.475 5.297 3.689 6.721-3.219 1.057-6.033 3.236-7.777 6.213-2.036 3.476-1.911 7.195-1.911 11.066h27.994c0-3.684.148-7.254-1.658-10.617-1.717-3.197-4.647-5.551-8.026-6.66zM32.002 20C34.207 20 36 21.793 36 24s-1.793 4-3.998 4c-2.207 0-4-1.793-4-4s1.795-4 4-4zm-9.945 24c.109-1.887.422-3.533 1.309-5.045C25.127 35.945 28.518 34 32 34c3.633 0 7.094 2.07 8.814 5.277.758 1.41 1.033 2.984 1.133 4.723h-19.89z"/></svg>