<?xml version="1.0" encoding="utf-8"?>
<!-- Generator: Adobe Illustrator 16.0.0, SVG Export Plug-In . SVG Version: 6.00 Build 0)  -->
<!DOCTYPE svg PUBLIC "-//W3C//DTD SVG 1.1//EN" "http://www.w3.org/Graphics/SVG/1.1/DTD/svg11.dtd">
<svg version="1.1" id="Layer_1" xmlns="http://www.w3.org/2000/svg" xmlns:xlink="http://www.w3.org/1999/xlink" x="0px" y="0px"
	 width="48px" height="48px" viewBox="0 0 48 48" enable-background="new 0 0 48 48" xml:space="preserve">
<g>
	<path d="M29.707,6.293c-0.287-0.287-0.716-0.373-1.09-0.217C28.244,6.231,28,6.596,28,7v9.013C19.434,16.222,2,19.319,2,41
		c0,0.452,0.303,0.848,0.74,0.966C2.826,41.989,2.914,42,3,42c0.35,0,0.682-0.184,0.864-0.497C8.996,32.684,14.27,30.119,28,30.004
		V39c0,0.404,0.244,0.77,0.617,0.924c0.374,0.155,0.803,0.069,1.09-0.217l16-16c0.391-0.391,0.391-1.023,0-1.414L29.707,6.293z"/>
</g>
</svg>
