<?xml version="1.0" encoding="utf-8"?>
<!-- Generator: Adobe Illustrator 16.0.0, SVG Export Plug-In . SVG Version: 6.00 Build 0)  -->
<!DOCTYPE svg PUBLIC "-//W3C//DTD SVG 1.1//EN" "http://www.w3.org/Graphics/SVG/1.1/DTD/svg11.dtd">
<svg version="1.1" id="Layer_1" xmlns="http://www.w3.org/2000/svg" xmlns:xlink="http://www.w3.org/1999/xlink" x="0px" y="0px"
	 width="16px" height="16px" viewBox="0 0 16 16" enable-background="new 0 0 16 16" xml:space="preserve">
<path d="M5.969,4.395l-0.047-0.74l0.677-0.376l0.614,0.219L6.643,3.97L5.969,4.395z M16,8c0,4.418-3.582,8-8,8c-4.418,0-8-3.582-8-8
	c0-4.418,3.582-8,8-8C12.418,0,16,3.582,16,8z M10.688,5.453l0.686,0.336l0.531,1.105l0.609-1.071l-0.908-1.413L10.688,5.453z
	 M9.496,6.02L8.692,5.366L8.461,5.719l-0.649-0.32L6.88,6.305l1.033-0.162l0.23,0.359l0.723,0.695l2.24-0.219L9.496,6.02z
	 M13.879,9.047l-1.195-1.488l-1.643,0.736l1.168,0.54L11.25,9.791l-0.875,0.584l-0.25,0.916L9.25,12.416l-1.167,0.667l-0.63-1.739
	L7.438,9.916L6.729,9.646L5.063,8.875l0.356-1.442l0.745-0.892l-0.177-1.1l0.715-0.086L6.55,4.778l1.348-0.944
	c0,0,1.272-0.131,1.299-0.306L8.938,3.103L8.489,3.55l-0.347-0.51L7.324,2.836l1.59-0.758C8.614,2.032,8.311,2,8,2
	C6.52,2,5.166,2.541,4.119,3.433c0.018,0.24,0.166,0.79,0.166,0.79S3.237,4.679,2.996,4.713C2.475,5.501,2.128,6.414,2.03,7.402
	c0.122,0.204,0.301,0.54,0.457,0.84l0.906,0.518l0.551,1.653l-0.896,0.958C4.128,12.955,5.942,14,8,14
	C10.948,14,13.379,11.854,13.879,9.047z"/>
</svg>
