<!-- Copyright © 2015 MODULUS Sp. z o. o. / FUTURAMO™ --><svg xmlns="http://www.w3.org/2000/svg" x="0px" y="0px" width="16px" height="16px" viewBox="0 0 32 32"><path class="toolbar-icon" fill="#000000" d="M19.74,9.303c1.3,1.267,1.266,2.929,1.258,3.114c0.001,1.907-0.826,3.017-1.801,3.877 C18.393,17.003,18,17.438,18,18v1h-3l0.018-1.007c0-1.743,1.196-2.797,2.157-3.643c0.903-0.796,0.968-1.217,0.968-1.988 c0.001-0.044,0.005-0.766-0.476-1.221c-0.329-0.312-0.867-0.47-1.599-0.47c-1.926,0-2.06,1.684-2.083,2.297L14,14h-3v-1.325 C11.044,11.036,12.159,8,16.066,8C17.997,8,19.13,8.708,19.74,9.303z M15,24h3v-3h-3V24z M16,4C9.383,4,4,9.383,4,16s5.383,12,12,12 s12-5.383,12-12S22.617,4,16,4 M16,0c8.837,0,16,7.163,16,16s-7.163,16-16,16S0,24.837,0,16S7.163,0,16,0L16,0z"></path></svg>