<?xml version="1.0" encoding="utf-8"?>
<!-- Generator: Adobe Illustrator 16.0.0, SVG Export Plug-In . SVG Version: 6.00 Build 0)  -->
<!DOCTYPE svg PUBLIC "-//W3C//DTD SVG 1.1//EN" "http://www.w3.org/Graphics/SVG/1.1/DTD/svg11.dtd">
<svg version="1.1" id="Layer_1" xmlns="http://www.w3.org/2000/svg" xmlns:xlink="http://www.w3.org/1999/xlink" x="0px" y="0px"
	 width="16px" height="16px" viewBox="0 0 16 16" enable-background="new 0 0 16 16" xml:space="preserve">
<g>
	<defs>
		<path id="SVGID_1_" d="M7.1,12.05c-2.8,0-5.1-2.199-5.1-5c0-2.8,2.3-5.1,5.1-5.1s5.1,2.3,5.1,5.1C12.2,9.851,9.9,12.05,7.1,12.05z
			 M12.7,11.25c0.899-1.2,1.399-2.6,1.399-4.2c0-3.899-3.1-7.1-7-7.1S0,3.15,0,7.05c0,3.9,3.2,7.101,7.1,7.101
			c1.6,0,3.1-0.5,4.2-1.4l3,3c0.2,0.2,0.5,0.3,0.7,0.3s0.5-0.1,0.7-0.3c0.399-0.399,0.399-1,0-1.399L12.7,11.25z"/>
	</defs>
	<use xlink:href="#SVGID_1_"  overflow="visible" fill-rule="evenodd" clip-rule="evenodd" fill="#5F6971"/>
	<clipPath id="SVGID_2_">
		<use xlink:href="#SVGID_1_"  overflow="visible"/>
	</clipPath>
	<rect x="-5" y="-5.05" clip-path="url(#SVGID_2_)" fill="#5F6971" width="26" height="26.1"/>
</g>
</svg>
