<?xml version="1.0" encoding="utf-8"?>
<!-- Generator: Adobe Illustrator 16.0.0, SVG Export Plug-In . SVG Version: 6.00 Build 0)  -->
<!DOCTYPE svg PUBLIC "-//W3C//DTD SVG 1.1//EN" "http://www.w3.org/Graphics/SVG/1.1/DTD/svg11.dtd">
<svg version="1.1" id="Layer_1" xmlns="http://www.w3.org/2000/svg" xmlns:xlink="http://www.w3.org/1999/xlink" x="0px" y="0px"
	 width="16px" height="16px" viewBox="0 0 16 16" enable-background="new 0 0 16 16" xml:space="preserve">
<path d="M9,2h7v5h-2V4H8.172l-2-2H2v9h6v2H0V0h7L9,2z M16,14.5V16H9v-1.5c0-1.402,0.827-2.609,2.019-3.168
	C10.699,10.979,10.5,10.514,10.5,10c0-1.104,0.896-2,2-2s2,0.896,2,2c0,0.514-0.199,0.979-0.519,1.332
	C15.173,11.891,16,13.098,16,14.5z M11.5,10c0,0.552,0.449,1,1,1s1-0.448,1-1s-0.449-1-1-1S11.5,9.448,11.5,10z"/>
</svg>
