<?xml version="1.0" encoding="utf-8"?>
<!-- Generator: Adobe Illustrator 16.0.0, SVG Export Plug-In . SVG Version: 6.00 Build 0)  -->
<!DOCTYPE svg PUBLIC "-//W3C//DTD SVG 1.1//EN" "http://www.w3.org/Graphics/SVG/1.1/DTD/svg11.dtd">
<svg version="1.1" id="Layer_1" xmlns="http://www.w3.org/2000/svg" xmlns:xlink="http://www.w3.org/1999/xlink" x="0px" y="0px"
	 width="16px" height="16px" viewBox="0 0 16 16" enable-background="new 0 0 16 16" xml:space="preserve">
<path d="M9,2h7v5h-2V4H8.172l-2-2H2v9h5v2H0V0h7L9,2z M15,11h1v5H9v-5h1v-0.5C10,9.119,11.119,8,12.5,8S15,9.119,15,10.5V11z
	 M13,12.5h-1v2h1V12.5z M14,10.5C14,9.673,13.327,9,12.5,9S11,9.673,11,10.5V11h3V10.5z"/>
</svg>
