<?xml version="1.0" encoding="utf-8"?>
<!-- Generator: Adobe Illustrator 16.0.0, SVG Export Plug-In . SVG Version: 6.00 Build 0)  -->
<!DOCTYPE svg PUBLIC "-//W3C//DTD SVG 1.1//EN" "http://www.w3.org/Graphics/SVG/1.1/DTD/svg11.dtd">
<svg version="1.1" id="Layer_1" xmlns="http://www.w3.org/2000/svg" xmlns:xlink="http://www.w3.org/1999/xlink" x="0px" y="0px"
	 width="16px" height="16px" viewBox="0 0 16 16" enable-background="new 0 0 16 16" xml:space="preserve">
<path d="M6,14H2c0-1.104,0.896-2,2-2S6,12.896,6,14z M5,11c0-0.553-0.447-1-1-1s-1,0.447-1,1s0.447,1,1,1S5,11.553,5,11z M0,8h8v8H0
	V8z M1,15h6V9H1V15z M2,0v7h2V2h6v3h3v9H9v2h6V4l-4-4H2z"/>
</svg>
