<?xml version="1.0" encoding="utf-8"?>
<!-- Generator: Adobe Illustrator 16.0.0, SVG Export Plug-In . SVG Version: 6.00 Build 0)  -->
<!DOCTYPE svg PUBLIC "-//W3C//DTD SVG 1.1//EN" "http://www.w3.org/Graphics/SVG/1.1/DTD/svg11.dtd">
<svg version="1.1" id="Ebene_1" xmlns="http://www.w3.org/2000/svg" xmlns:xlink="http://www.w3.org/1999/xlink" x="0px" y="0px"
	 width="48px" height="48px" viewBox="0 0 48 48" enable-background="new 0 0 48 48" xml:space="preserve">
<g>
	<g>
		<path d="M42.261,33.767c-6.209,6.216-16.22,6.271-22.428,0.053c-0.037-0.037-0.056-0.06-0.056-0.06s-2.153-2.732,0.58-5.472
			c2.659-2.661,5.042-0.156,5.042-0.156c-0.002,0,0.016,0.023,0.055,0.06c3.103,3.109,8.107,3.082,11.213-0.027
			c3.104-3.109,3.255-7.997,0.15-11.106C36.778,17.02,19.803,0.026,19.803,0.027L31.019,0c0,0,11.369,11.38,11.407,11.417
			C48.633,17.634,48.47,27.549,42.261,33.767z"/>
	</g>
	<g>
		<path d="M5.599,13.69c6.21-6.217,16.22-6.27,22.428-0.054c0.039,0.038,0.057,0.06,0.057,0.06s2.152,2.734-0.58,5.47
			c-2.66,2.664-5.04,0.158-5.04,0.158s-0.018-0.023-0.056-0.061c-3.104-3.108-8.11-3.079-11.214,0.028
			c-3.104,3.108-2.976,8.279,0.129,11.384c0.037,0.039,17.293,17.315,17.295,17.313L17.385,48c0,0-11.633-11.645-11.67-11.682
			C-0.494,30.102-0.61,19.907,5.599,13.69z"/>
	</g>
</g>
</svg>
