<?xml version="1.0" encoding="utf-8"?>
<!-- Generator: Adobe Illustrator 16.0.0, SVG Export Plug-In . SVG Version: 6.00 Build 0)  -->
<!DOCTYPE svg PUBLIC "-//W3C//DTD SVG 1.1//EN" "http://www.w3.org/Graphics/SVG/1.1/DTD/svg11.dtd">
<svg version="1.1" id="Layer_1" xmlns="http://www.w3.org/2000/svg" xmlns:xlink="http://www.w3.org/1999/xlink" x="0px" y="0px"
	 width="16px" height="16px" viewBox="0 0 16 16" enable-background="new 0 0 16 16" xml:space="preserve">
<path d="M9,2h7v5h-2V4H8.172l-2-2H2v9h5v2H0V0h7L9,2z M16,12c0,2.209-1.791,4-4,4s-4-1.791-4-4s1.791-4,4-4S16,9.791,16,12z
	 M9.418,13.521l4.104-4.104C13.074,9.154,12.556,9,12,9c-1.654,0-3,1.346-3,3C9,12.556,9.154,13.074,9.418,13.521z M15,12
	c0-0.556-0.154-1.074-0.418-1.521l-4.104,4.104C10.926,14.846,11.444,15,12,15C13.654,15,15,13.654,15,12z"/>
</svg>
