<?xml version="1.0" encoding="utf-8"?>
<!-- Generator: Adobe Illustrator 16.0.0, SVG Export Plug-In . SVG Version: 6.00 Build 0)  -->
<!DOCTYPE svg PUBLIC "-//W3C//DTD SVG 1.1//EN" "http://www.w3.org/Graphics/SVG/1.1/DTD/svg11.dtd">
<svg version="1.1" id="Layer_1" xmlns="http://www.w3.org/2000/svg" xmlns:xlink="http://www.w3.org/1999/xlink" x="0px" y="0px"
	 width="16px" height="16px" viewBox="0 0 16 16" enable-background="new 0 0 16 16" xml:space="preserve">
<path d="M9,2h7v5h-2V4H8.172l-2-2H2v9h3v2H0V0h7L9,2z M13,10c-0.553,0-1,0.447-1,1s0.447,1,1,1s1-0.447,1-1S13.553,10,13,10z M6,8
	h10v8H6V8z M7,15h8V9H7V15z M12.25,13.312L11,11l-1.125,1.594L8,10v4h6l-0.891-1.375L12.25,13.312z"/>
</svg>
