<?xml version="1.0" encoding="utf-8"?>
<!-- Generator: Adobe Illustrator 16.0.0, SVG Export Plug-In . SVG Version: 6.00 Build 0)  -->
<!DOCTYPE svg PUBLIC "-//W3C//DTD SVG 1.1//EN" "http://www.w3.org/Graphics/SVG/1.1/DTD/svg11.dtd">
<svg version="1.1" id="Layer_1" xmlns="http://www.w3.org/2000/svg" xmlns:xlink="http://www.w3.org/1999/xlink" x="0px" y="0px"
	 width="16px" height="16px" viewBox="0 0 16 16" enable-background="new 0 0 16 16" xml:space="preserve">
<path d="M5.913,5.217L7.826,7.13L7.13,7.826L5.217,5.913L0,11.131L4.87,16l5.217-5.217L8.174,8.869l0.695-0.695l1.914,1.913L16,4.87
	L11.131,0L5.913,5.217z M7.965,10.783L4.87,13.879l-2.748-2.748l3.096-3.096L6.07,8.887l-1.374,1.374l1.043,1.044l1.374-1.374
	L7.965,10.783z M10.783,7.965L9.93,7.113l1.375-1.374l-1.044-1.044L8.887,6.069L8.034,5.217l3.096-3.096l2.749,2.749L10.783,7.965z"
	/>
</svg>
