<!-- Copyright © 2015 MODULUS Sp. z o. o. / FUTURAMO™ --><svg xmlns="http://www.w3.org/2000/svg" x="0px" y="0px" width="16px" height="16px" viewBox="0 0 32 32"><path  fill="#000000" d="M20.375,28H8.824C3.959,28,0,24.187,0,19.5c0-2.901,1.533-5.563,4.004-7.114C4.158,7.736,8.135,4,13,4 c2.027,0,3.953,0.644,5.527,1.83c0.646-0.111,1.248-0.164,1.848-0.164c6.41,0,11.625,5.01,11.625,11.167S26.785,28,20.375,28z  M13,8c-2.758,0-5,2.093-5,4.666c0,0.813,0.277,1.973,0.277,1.973S4,15.719,4,19.5C4,21.981,6.164,24,8.824,24h11.551 C24.58,24,28,20.785,28,16.833s-3.42-7.167-7.625-7.167c-0.574,0-1.184,0.084-1.918,0.264l-1.072,0.263l-0.793-0.767 C15.639,8.507,14.363,8,13,8z"></path></svg>