<!-- Copyright © 2015 MODULUS Sp. z o. o. / FUTURAMO™ --><svg xmlns="http://www.w3.org/2000/svg" x="0px" y="0px" width="32px" height="32px" viewBox="0 0 32 32"><path  fill="#000000" d="M32,24H0l0-4h32V24z M14,14H0l0,4h14V14z M32,26H0l0,4h32V26z M14,8H0l0,4h14V8z M14,2H0l0,4h14V2z M16,2h16 v16H16V2z M18,16h2v-2c0-1.808,1.207-3.318,2.854-3.813C22.059,9.768,21.5,8.96,21.5,8c0-1.381,1.119-2.5,2.5-2.5s2.5,1.119,2.5,2.5 c0,0.96-0.559,1.768-1.354,2.187C26.793,10.682,28,12.192,28,14v2h2V4H18V16z"></path></svg>