<?xml version="1.0" encoding="utf-8"?>
<!-- Generator: Adobe Illustrator 16.0.0, SVG Export Plug-In . SVG Version: 6.00 Build 0)  -->
<!DOCTYPE svg PUBLIC "-//W3C//DTD SVG 1.1//EN" "http://www.w3.org/Graphics/SVG/1.1/DTD/svg11.dtd">
<svg version="1.1" id="Layer_1" xmlns="http://www.w3.org/2000/svg" xmlns:xlink="http://www.w3.org/1999/xlink" x="0px" y="0px"
	 width="32px" height="32px" viewBox="0 0 32 32" enable-background="new 0 0 32 32" xml:space="preserve">
<path d="M20,16c0,1.104-0.896,2-2,2s-2-0.896-2-2c0-1.104,0.896-2,2-2S20,14.896,20,16z M12,20l-4-6l-2,4.375V24h14l-6-6L12,20z
	 M6,2h26v24h-6v4H0V8h6V2z M22,26V12H4v14H22z M10,6v2h16v14h2V6H10z"/>
</svg>
