<!-- Copyright © 2015 MODULUS Sp. z o. o. / FUTURAMO™ --><svg xmlns="http://www.w3.org/2000/svg" x="0px" y="0px" width="32px" height="32px" viewBox="0 0 32 32"><path  fill="#000000" d="M10,14h6v2h-6V14z M22,10H10v2h12V10z M4,4h20v8h4V0H0v28h15v-4H4V4z M8,6H6v2h2V6z M22,6H10v2h12V6z M6,16 h2v-2H6V16z M8,10H6v2h2V10z M25.574,26.504l3.441,4.915l2.457-1.721l-3.441-4.915L25.574,26.504z M25.655,24.006 c-0.96,0.672-2.06,0.995-3.15,0.995c-1.734,0-3.44-0.818-4.51-2.346c-1.742-2.488-1.138-5.918,1.351-7.66 c0.96-0.672,2.06-0.995,3.15-0.995c1.734,0,3.44,0.818,4.51,2.346C28.748,18.834,28.143,22.264,25.655,24.006z M25.367,17.493 C24.713,16.558,23.639,16,22.496,16c-0.718,0-1.411,0.219-2.003,0.633c-1.581,1.107-1.966,3.294-0.86,4.875 c0.655,0.935,1.728,1.493,2.872,1.493c0.718,0,1.411-0.219,2.003-0.633C26.089,21.261,26.474,19.074,25.367,17.493z"></path></svg>