<?xml version="1.0" encoding="utf-8"?>
<!-- Generator: Adobe Illustrator 16.0.0, SVG Export Plug-In . SVG Version: 6.00 Build 0)  -->
<!DOCTYPE svg PUBLIC "-//W3C//DTD SVG 1.1//EN" "http://www.w3.org/Graphics/SVG/1.1/DTD/svg11.dtd">
<svg version="1.1" id="Layer_1" xmlns="http://www.w3.org/2000/svg" xmlns:xlink="http://www.w3.org/1999/xlink" x="0px" y="0px"
	 width="32px" height="32px" viewBox="0 0 32 32" enable-background="new 0 0 32 32" xml:space="preserve">
<rect y="8" width="32" height="4"/>
<rect y="26" width="14" height="4"/>
<rect y="20" width="14" height="4"/>
<rect y="2" width="32" height="4"/>
<rect y="14" width="14" height="4"/>
<path d="M20,15v3v7.154C19.686,25.061,19.355,25,19,25c-1.656,0-3,1.121-3,2.5s1.344,2.5,3,2.5s3-1.121,3-2.5v-9.684l7-0.633v6.971
	C28.686,24.061,28.355,24,28,24c-1.656,0-3,1.121-3,2.5s1.344,2.5,3,2.5s3-1.121,3-2.5V17v-3L20,15z"/>
</svg>
