<?xml version="1.0" encoding="utf-8"?>
<!-- Generator: Adobe Illustrator 16.0.0, SVG Export Plug-In . SVG Version: 6.00 Build 0)  -->
<!DOCTYPE svg PUBLIC "-//W3C//DTD SVG 1.1//EN" "http://www.w3.org/Graphics/SVG/1.1/DTD/svg11.dtd">
<svg version="1.1" id="Layer_1" xmlns="http://www.w3.org/2000/svg" xmlns:xlink="http://www.w3.org/1999/xlink" x="0px" y="0px"
	 width="32px" height="32px" viewBox="0 0 32 32" enable-background="new 0 0 32 32" xml:space="preserve">
<path d="M0,8h32v4H0V8z M16,14h16v16H16V14z M18,24l2-2l10,6V16H18V24z M0,30h14v-4H0V30z M0,24h14v-4H0V24z M0,6h32V2H0V6z M0,18
	h14v-4H0V18z M26,22c1.105,0,2-0.895,2-2s-0.895-2-2-2s-2,0.895-2,2S24.895,22,26,22z"/>
</svg>
