<svg xmlns="http://www.w3.org/2000/svg" viewBox="0 0 32 32"><path d="M32 12.651V24H16L6 32v-8H0V0h19.349a9.011 9.011 0 0 0-2.826 4H4v16h6v3.678L14.598 20H28v-4.523a9.011 9.011 0 0 0 4-2.826zM32 7a7 7 0 1 1-14 0 7 7 0 0 1 14 0zm-6 3h-2v2h2v-2zm2.03-6.881c-.346-.53-1.196-1.419-2.983-1.419-2.584 0-3.547 2.001-3.547 3.263V6h2V4.992c.018-.388.203-1.292 1.547-1.292.444 0 1.053.075 1.31.515C27.344 5.906 23.938 6.5 24 8.128V9h2s-.094-1 .375-1.406c.49-.425 1.575-.953 1.933-1.771.362-.832.253-1.893-.278-2.704z"/></svg>