<svg xmlns="http://www.w3.org/2000/svg" viewBox="0 0 32 32"><path d="M11.938 8.79l-.094-1.48 1.354-.753 1.228.438-1.141.945-1.347.85zM32 16c0 8.837-7.163 16-16 16S0 24.837 0 16 7.163 0 16 0s16 7.163 16 16zm-10.626-5.094l1.371.672 1.063 2.21 1.218-2.141-1.816-2.826-1.836 2.085zm-2.383 1.134l-1.606-1.308-.462.706-1.299-.641-1.864 1.813 2.065-.324.46.719 1.446 1.39 4.48-.438-3.22-1.917zm8.766 6.054l-2.39-2.977-3.285 1.472 2.335 1.078-1.917 1.916-1.75 1.167-.5 1.833-1.75 2.25-2.333 1.333-1.26-3.479-.031-2.854-1.417-.542-3.333-1.542.712-2.883 1.49-1.784-.354-2.2 1.429-.173-.303-1.152 2.696-1.888s2.543-.263 2.598-.611l-.517-.853-.898.896-.694-1.02-1.637-.409 3.179-1.517A12.105 12.105 0 0 0 16 4c-2.96 0-5.668 1.082-7.762 2.865.035.48.332 1.579.332 1.579s-2.095.914-2.578.982a11.871 11.871 0 0 0-1.932 5.379c.243.408.602 1.079.914 1.68l1.812 1.037 1.102 3.306-1.791 1.916C8.257 25.911 11.884 28 16 28c5.896 0 10.757-4.293 11.757-9.906z"/></svg>