<svg xmlns="http://www.w3.org/2000/svg" viewBox="0 0 16 16"><circle cx="11" cy="6" r="1"/><circle cx="8" cy="6" r="1"/><path d="M0 0v12h3v4l4-2.667V10.93l-2 1.333V10H2V2h12v5h2V0z"/><circle cx="5" cy="6" r="1"/><path d="M16 12a4 4 0 1 1-8 0 4 4 0 0 1 8 0zm-2.846-.559l-.455-.339a.087.087 0 0 1-.023-.024l-.193-.283c-.056-.059-.111-.059-.166.001l-.041.062c-.045.052-.094.059-.15.02l-.165-.146c-.056-.038-.104-.032-.149.019l-.193.281c-.035.095-.002.146.098.156l.148-.023a.099.099 0 0 1 .114.08l.036.192a.097.097 0 0 0 .062.075l.303.113a.09.09 0 0 0 .037.007l.68-.01c.104-.032.124-.093.057-.181zm1.842.604c-.328-.178-.692-.312-.692-.312l-1.039.288c-.079.046-.091.104-.03.174l.23.181c.049.048.051.099.008.15l-.433.561c-.016.016-.198.275-.198.275-.061.186-.627.514-.627.514a.1.1 0 0 1-.133-.035s-.242-.384-.244-.396l-.096-.563a.113.113 0 0 0-.038-.06l-.69-.514a.097.097 0 0 1-.039-.068l-.055-.466a.097.097 0 0 1 .014-.062l.206-.349a.096.096 0 0 0 .013-.066l-.059-.365c-.004-.062.025-.102.086-.115l.11-.013c.065-.017.094-.058.085-.125l-.023-.085a.1.1 0 0 1 .04-.107l.54-.379c.076-.054.748-.322.621-.534l-.235-.057c.045.015-.187.011-.187.011-.055.043-.595-.197-.382-.363l.144-.073c.035-.019.021-.047-.007-.078a2.977 2.977 0 0 0-1.621.55c.017.107.043.267.046.277-.269.211.139.377-.336.564-.352.139-.43.305-.564.678-.197.545-.356.959.25 1.188a.099.099 0 0 1 .045.055l.222.665a6.923 6.923 0 0 0-.053.388l-.448.141A2.996 2.996 0 0 0 12 15a3 3 0 0 0 2.996-2.955zm-5.068.943c.011-.077.009-.058 0 0z"/></svg>