<svg xmlns="http://www.w3.org/2000/svg" viewBox="0 0 32 32"><path d="M32 15.305V26H22l-6 6-6-6H0V0h16.695a11.063 11.063 0 0 0-3.481 4H4v18h7.657L16 26.343 20.343 22H28v-3.214a11.063 11.063 0 0 0 4-3.481zM32 9a9 9 0 0 1-9 9 9 9 0 0 1-9-9 9 9 0 0 1 9-9 9 9 0 0 1 9 9zm-7.41-2.168l-.455-.668c-.131-.138-.261-.137-.391.003l-.097.147c-.103.122-.221.138-.352.046l-.39-.345c-.13-.091-.246-.077-.35.043l-.455.663c-.083.223-.006.345.231.365l.349-.055a.235.235 0 0 1 .268.19l.083.452a.235.235 0 0 0 .149.178l.712.267c.028.01.057.015.086.015l1.601-.024c.248-.076.294-.217.137-.424l-1.072-.797a.26.26 0 0 1-.054-.056zm5.337 2.211c-.737-.388-1.507-.673-1.507-.673l-2.445.679c-.187.108-.211.244-.072.409l.542.425c.114.113.12.232.017.355l-1.016 1.318c-.037.035-.467.647-.467.647-.141.437-1.475 1.209-1.475 1.209a.236.236 0 0 1-.31-.081s-.57-.905-.576-.933l-.225-1.327a.236.236 0 0 0-.089-.139l-1.625-1.21a.234.234 0 0 1-.093-.162l-.126-1.094a.236.236 0 0 1 .031-.147l.485-.819a.233.233 0 0 0 .03-.157l-.138-.861c-.009-.148.059-.238.204-.271l.259-.031c.155-.037.222-.135.199-.293l-.053-.202a.237.237 0 0 1 .092-.253l1.271-.889c.18-.127 1.761-.761 1.462-1.257l-.554-.134c.106.034-.439.026-.439.026-.131.102-1.4-.464-.899-.856l.336-.172c.066-.034.05-.085.013-.139a6.948 6.948 0 0 0-3.768 1.26.126.126 0 0 0-.052.124c.038.233.08.496.085.518-.631.494.328.885-.791 1.327-.826.326-1.008.716-1.326 1.593-.465 1.282-.84 2.257.588 2.796.05.029.088.075.106.13l.522 1.564c-.03.198-.09.594-.116.83a.126.126 0 0 1-.087.107l-.936.302C18.207 14.616 20.442 16 23 16c3.807 0 6.91-3.055 6.995-6.841a.13.13 0 0 0-.068-.116z"/></svg>