<svg class="nc-icon glyph" xmlns="http://www.w3.org/2000/svg" xmlns:xlink="http://www.w3.org/1999/xlink" x="0px" y="0px" width="16px" height="16px" viewBox="0 0 16 16"><g>
<path opacity="0.4" fill="#666666" d="M8,16c-4.4111328,0-8-3.5888672-8-8s3.5888672-8,8-8s8,3.5888672,8,8S12.4111328,16,8,16z
	 M8,2C4.6914062,2,2,4.6914062,2,8s2.6914062,6,6,6s6-2.6914062,6-6S11.3085938,2,8,2z"></path>
<path class="nc-circle-03-linear" data-color="color-2" fill="#666666" d="M16,8h-2c0-3.3085938-2.6914062-6-6-6V0C12.4111328,0,16,3.5888672,16,8z" transform="rotate(148.38642859831452 8 8)"></path>
</g>
<script>function stepCircleThreeLinX(t){startxCircle8||(startxCircle8=t);var e=t-startxCircle8,n=Math.min(e/1.4,360);504&gt;e||(startxCircle8+=504);if(pathx[0]){window.requestAnimationFrame(stepCircleThreeLinX);for(j = 0;  pathxNumber &gt; j ; j++) {pathx[j].setAttribute("transform","rotate("+n+" 8 8)")}}}!function(){var t=0;window.requestAnimationFrame||(window.requestAnimationFrame=function(e){var n=(new Date).getTime(),r=Math.max(0,16-(n-t)),i=window.setTimeout(function(){e(n+r)},r);return t=n+r,i})}();var pathx=document.getElementsByClassName("nc-circle-03-linear"),startxCircle8=null,pathxNumber = pathx.length;window.requestAnimationFrame(stepCircleThreeLinX);</script>
</svg>