<?xml version="1.0" encoding="utf-8"?>
<!-- Generator: Adobe Illustrator 16.0.0, SVG Export Plug-In . SVG Version: 6.00 Build 0)  -->
<!DOCTYPE svg PUBLIC "-//W3C//DTD SVG 1.1//EN" "http://www.w3.org/Graphics/SVG/1.1/DTD/svg11.dtd">
<svg version="1.1" id="Layer_1" xmlns="http://www.w3.org/2000/svg" xmlns:xlink="http://www.w3.org/1999/xlink" x="0px" y="0px"
	 width="64px" height="64px" viewBox="0 0 64 64" enable-background="new 0 0 64 64" xml:space="preserve">
<path fill="#999999" d="M36.312,30.723c2.215-1.424,3.689-3.895,3.689-6.723c0-4.418-3.58-8-8-8c-4.418,0-8,3.582-8,8
	c0,2.828,1.475,5.297,3.689,6.721c-3.219,1.057-6.033,3.236-7.777,6.213C17.877,40.41,18.002,44.129,18.002,48h27.994
	c0-3.684,0.148-7.254-1.658-10.617C42.621,34.186,39.691,31.832,36.312,30.723z M32.002,20C34.207,20,36,21.793,36,24
	s-1.793,4-3.998,4c-2.207,0-4-1.793-4-4S29.797,20,32.002,20z M22.057,44c0.109-1.887,0.422-3.533,1.309-5.045
	C25.127,35.945,28.518,34,32,34c3.633,0,7.094,2.07,8.814,5.277c0.758,1.41,1.033,2.984,1.133,4.723H22.057z"/>
</svg>
