<svg xmlns="http://www.w3.org/2000/svg" viewBox="0 0 32 32"><path fill="#FFF" d="M1.236 15.41l2.667-.49c.358.449.764.857 1.221 1.223L4.636 18.8c.458.281.92.558 1.432.769.511.212 1.034.343 1.555.468l1.535-2.224a7.74 7.74 0 0 0 1.728-.001l1.539 2.232a10.357 10.357 0 0 0 2.983-1.236l-.489-2.667a7.76 7.76 0 0 0 1.222-1.222l2.658.488c.28-.458.557-.92.769-1.431.211-.511.343-1.034.468-1.556l-2.225-1.534a7.74 7.74 0 0 0 0-1.728l2.231-1.54a10.347 10.347 0 0 0-1.236-2.984l-2.666.49a7.766 7.766 0 0 0-1.222-1.223l.488-2.658c-.458-.281-.92-.558-1.431-.77-.512-.212-1.034-.343-1.556-.468l-1.535 2.224a7.8 7.8 0 0 0-1.728.001L7.618.001C6.564.255 5.56.671 4.635 1.236l.489 2.667a7.845 7.845 0 0 0-1.222 1.222l-2.658-.488c-.28.458-.557.92-.769 1.431-.212.511-.343 1.034-.468 1.556l2.225 1.534a7.68 7.68 0 0 0 .001 1.728L0 12.426c.254 1.054.67 2.058 1.236 2.984zm4.779-7.048a4.325 4.325 0 0 1 4.013-2.677c.57 0 1.125.111 1.654.33a4.306 4.306 0 0 1 2.347 2.348 4.313 4.313 0 0 1 0 3.32 4.326 4.326 0 0 1-4.011 2.677 4.342 4.342 0 0 1-4.003-5.998zm23.589 12.949a6.645 6.645 0 0 0-.565-1.364l1.257-1.944a8.84 8.84 0 0 0-1.95-1.95l-1.943 1.258a6.622 6.622 0 0 0-1.364-.565l-.483-2.257c-.453-.072-.908-.139-1.381-.14-.473 0-.928.068-1.381.14l-.484 2.257c-.48.14-.934.328-1.364.565l-1.944-1.258a8.862 8.862 0 0 0-1.95 1.95l1.258 1.945a6.614 6.614 0 0 0-.565 1.363l-2.257.484c-.071.453-.139.908-.139 1.381s.068.928.139 1.38l2.257.484c.139.48.328.934.566 1.363l-1.258 1.945a8.867 8.867 0 0 0 1.951 1.95l1.944-1.258c.429.237.883.426 1.363.566l.483 2.257c.453.072.908.139 1.381.139.472 0 .928-.067 1.38-.139l.484-2.257c.481-.14.934-.328 1.364-.565l1.944 1.258a8.862 8.862 0 0 0 1.95-1.95l-1.258-1.945c.237-.428.426-.883.565-1.363l2.257-.484c.071-.454.139-.909.139-1.382 0-.473-.068-.928-.139-1.381l-2.257-.483zm-5.015 5.288a3.708 3.708 0 0 1-5.119-3.424c0-1.504.898-2.847 2.291-3.424a3.653 3.653 0 0 1 1.413-.28 3.68 3.68 0 0 1 2.619 1.086 3.683 3.683 0 0 1 1.085 2.62 3.693 3.693 0 0 1-2.289 3.422z"/></svg>