<svg xmlns="http://www.w3.org/2000/svg" viewBox="0 0 32 32"><path fill="#FFF" d="M24.212 14.775C26.479 13.363 28 10.867 28 8a8 8 0 0 0-8-8c-3.996 0-7.279 2.938-7.876 6.767C11.18 6.292 10.129 6 9 6a7 7 0 0 0-7 7 6.983 6.983 0 0 0 3.202 5.867C2.137 20.302 0 23.392 0 27v5h32v-6c0-5.143-3.241-9.517-7.788-11.225zM20 4c2.206 0 4 1.794 4 4s-1.794 4-4 4-4-1.794-4-4 1.794-4 4-4zm-4.249 10.755l.037.02-.05.018c.003-.013.009-.025.013-.038zM8 26v3H3v-2c0-3.308 2.692-6 6-6 .033 0 .064.009.097.01A11.926 11.926 0 0 0 8 26zm1-9c-2.206 0-4-1.794-4-4s1.794-4 4-4 4 1.794 4 4-1.794 4-4 4zm19 11H12v-2c0-4.411 3.589-8 8-8s8 3.589 8 8v2z"/></svg>