<svg xmlns="http://www.w3.org/2000/svg" viewBox="0 0 32 32"><path fill="#FFF" d="M31.634 6.064l-1.525-.254a5.199 5.199 0 0 0-.656-1.58l.9-1.259.215-.301-.157-.157-.105-.105-.713-.714-.262-.262-.181.129-1.38.986a5.21 5.21 0 0 0-1.58-.656L25.936.366 25.875 0H24.126l-.036.219-.28 1.672c-.568.132-1.1.356-1.581.656l-1.259-.9-.302-.216-.157.157-.679.68-.139.139-.105.105-.157.157.129.181.985 1.38a5.233 5.233 0 0 0-.655 1.58l-1.671.278-.219.037v.222l.001 1.305v.222l.365.061.819.136.705.117a5.199 5.199 0 0 0 .656 1.58l-.986 1.38-.129.181.157.157.924.922.157.157.301-.215 1.259-.899a5.21 5.21 0 0 0 1.58.656l.278 1.671.038.222H25.874l.061-.365.254-1.525a5.205 5.205 0 0 0 1.581-.656l.998.713.261.187.302.216.262-.262.713-.713.262-.262-.215-.302-.9-1.26a5.207 5.207 0 0 0 .656-1.58l1.525-.254.366-.062v-1.75l-.366-.061zM25 10a3 3 0 1 1 0-6 3 3 0 0 1 0 6zm-5 14v6h6v2H6v-2h6v-6H0V0h16v4H4v16h24v-4h4v8H20z"/></svg>