<svg xmlns="http://www.w3.org/2000/svg" viewBox="0 0 32 32"><path fill="#FFF" d="M32 6c0 .797-.163 1.554-.445 2.25A17.02 17.02 0 0 0 22.694.999 5.961 5.961 0 0 1 26 0a6 6 0 0 1 6 6zm-16 4v8h8v-2h-6v-6h-2zM2 6c0 .797.163 1.554.445 2.25A17.02 17.02 0 0 1 11.306.999 5.961 5.961 0 0 0 8 0a6 6 0 0 0-6 6zm14.968-4C9.497 2 2.164 8.296 2 16.004h4.009c.417-4.343 3.469-8.193 7.654-9.494 4.322-1.344 9.233.166 12.005 3.75 2.69 3.478 3.069 8.425.852 12.235a11.193 11.193 0 0 1-4.461 4.25c-1.801.945-3.62 1.209-5.591 1.236a.5.5 0 0 0-.493.5v3.491c8.347.518 15.882-6.302 16.023-14.681C32.136 9.092 25.186 2 16.968 2zm-3.334 22.064l.366.061V25.874l-.365.061-1.525.254a5.199 5.199 0 0 1-.656 1.58l.9 1.26.215.302-.262.262-.713.713-.262.262-.302-.216-.261-.187-.998-.713c-.481.3-1.012.524-1.581.656l-.254 1.525-.061.367h-1.75l-.036-.219-.279-1.672a5.2 5.2 0 0 1-1.58-.656l-1.259.899-.301.215-.157-.157-.924-.922-.157-.157.129-.181.986-1.38a5.207 5.207 0 0 1-.656-1.58l-.705-.117-.819-.136-.365-.061v-.222L0 24.347v-.222l.219-.037 1.671-.278a5.233 5.233 0 0 1 .655-1.58l-.985-1.38-.129-.181.157-.157.105-.105.139-.139.679-.68.157-.157.302.216 1.259.9a5.216 5.216 0 0 1 1.581-.656l.278-1.671.037-.22H7.874l.061.365.254 1.525a5.2 5.2 0 0 1 1.58.656l1.38-.986.181-.129.262.262.713.714.105.105.157.157-.215.301-.9 1.259a5.207 5.207 0 0 1 .656 1.58l1.526.255zM10 25a3 3 0 1 0-6 0 3 3 0 0 0 6 0z"/></svg>