<svg xmlns="http://www.w3.org/2000/svg" xmlns:xlink="http://www.w3.org/1999/xlink" viewBox="0 0 64 64"><title>module-aboutmodules</title><defs><path id="a" d="M16.354 41.853l15.131 5.043v-24.83L16.68 17.131a.514.514 0 0 0-.68.49v23.742a.52.52 0 0 0 .354.49"/></defs><use xlink:href="#a" overflow="visible" fill-rule="evenodd" clip-rule="evenodd" fill="#FFF"/><clipPath id="b"><use xlink:href="#a" overflow="visible"/></clipPath><path clip-path="url(#b)" fill="#FFF" d="M13.42 14.524h20.645v34.953H13.42z"/><g><defs><path id="c" d="M47.786 17.202a.513.513 0 0 0-.465-.071l-14.806 4.936v24.829l15.131-5.043a.517.517 0 0 0 .354-.49V17.621a.518.518 0 0 0-.214-.419"/></defs><use xlink:href="#c" overflow="visible" fill-rule="evenodd" clip-rule="evenodd" fill="#FFF"/><clipPath id="d"><use xlink:href="#c" overflow="visible"/></clipPath><path clip-path="url(#d)" fill="#FFF" d="M29.936 14.524h20.645v34.953H29.936z"/></g></svg>