<svg xmlns="http://www.w3.org/2000/svg" viewBox="0 0 32 32"><path fill="#FFF" d="M28.109 23.81a5.09 5.09 0 0 0-.266-.822 5.056 5.056 0 0 0-.39-.757l1.115-1.562-1.238-1.238-1.562 1.115a5.212 5.212 0 0 0-1.58-.655L23.875 18h-1.75l-.315 1.891c-.568.133-1.1.357-1.582.656l-1.56-1.116-1.237 1.238 1.114 1.562c-.3.48-.523 1.012-.655 1.579l-1.89.315.001 1.75 1.89.315c.065.283.154.559.265.822.11.265.241.518.391.757l-1.114 1.562 1.237 1.237 1.562-1.114a5.238 5.238 0 0 0 1.58.655L22.125 32h1.75l.06-.365.254-1.525a5.283 5.283 0 0 0 1.582-.656l1.56 1.116 1.238-1.238-1.115-1.562a5.25 5.25 0 0 0 .656-1.579l1.89-.316v-1.75l-1.891-.315zM23 28a3 3 0 1 1 0-6 3 3 0 0 1 0 6zM8 6h4v2H8V6zm0 18v-2h4v2H8zm6 2H6v-6h10v-2H6v-6h16v4h4V0H2v30h12v-4zM6 4h16v6H6V4zm2 12v-2h4v2H8z"/></svg>