<svg xmlns="http://www.w3.org/2000/svg" viewBox="0 0 32 32"><g fill="#FFF"><path d="M23 2.4C23 1.075 24.174 0 25.5 0S28 1.075 28 2.4v27.2c0 1.326-1.174 2.4-2.5 2.4S23 30.926 23 29.6V2.4z"/><path opacity=".6" d="M18 24.6c0 1.326-1.119 2.4-2.5 2.4S13 25.926 13 24.6V7.4C13 6.075 14.119 5 15.5 5S18 6.075 18 7.4v17.2z"/><path opacity=".2" d="M9 20.6C9 21.926 7.881 23 6.5 23S4 21.926 4 20.6v-8.2C4 11.075 5.119 10 6.5 10S9 11.075 9 12.4v8.2z"/><path opacity=".4" d="M9 13.333c0-.883.674-1.6 2-1.6s2 .717 2 1.6v5.334c0 .884-.674 1.6-2 1.6s-2-.716-2-1.6v-5.334z"/><path opacity=".8" d="M23 20.6c0 1.326-1.008 2.4-2.25 2.4h-.5C19.008 23 18 21.926 18 20.6v-8.2c0-1.325 1.008-2.4 2.25-2.4h.5c1.242 0 2.25 1.075 2.25 2.4v8.2z"/></g></svg>