<svg xmlns="http://www.w3.org/2000/svg" viewBox="0 0 32 32"><path fill="#FFF" d="M30.109 23.81a5.199 5.199 0 0 0-.656-1.58l1.115-1.561-1.237-1.238-1.561 1.115a5.21 5.21 0 0 0-1.58-.656L25.875 18h-1.75l-.315 1.891c-.568.132-1.1.356-1.581.656l-1.561-1.115-1.237 1.238 1.115 1.561a5.233 5.233 0 0 0-.655 1.58L18 24.125l.001 1.75 1.89.315a5.199 5.199 0 0 0 .656 1.58l-1.115 1.561 1.238 1.236 1.56-1.114a5.21 5.21 0 0 0 1.58.656L24.125 32h1.75l.315-1.891a5.205 5.205 0 0 0 1.581-.656l1.561 1.116 1.237-1.237-1.115-1.562a5.207 5.207 0 0 0 .656-1.58l1.89-.315v-1.75l-1.891-.315zM25 28a3 3 0 1 1 0-6 3 3 0 0 1 0 6zm-9-6H4V12h8v4h4v-4h8v4h4V4h-8V0H8v4H0v22h16v-4zM10 2h8v2h-8V2zM4 8h20v2H4V8z"/></svg>