<svg xmlns="http://www.w3.org/2000/svg" viewBox="0 0 32 32"><path fill="#FFF" d="M19.74 9.303c1.3 1.267 1.266 2.929 1.258 3.114.001 1.907-.826 3.017-1.801 3.877C18.393 17.003 18 17.438 18 18v1h-3l.018-1.007c0-1.743 1.196-2.797 2.157-3.643.903-.796.968-1.217.968-1.988.001-.044.005-.766-.476-1.221-.329-.312-.867-.47-1.599-.47-1.926 0-2.06 1.684-2.083 2.297L14 14h-3v-1.325C11.044 11.036 12.159 8 16.066 8c1.931 0 3.064.708 3.674 1.303zM15 24h3v-3h-3v3zm1-20C9.383 4 4 9.383 4 16s5.383 12 12 12 12-5.383 12-12S22.617 4 16 4m0-4c8.837 0 16 7.163 16 16s-7.163 16-16 16S0 24.837 0 16 7.163 0 16 0z"/></svg>