<?xml version="1.0" encoding="utf-8"?>
<!-- Generator: Adobe Illustrator 16.0.0, SVG Export Plug-In . SVG Version: 6.00 Build 0)  -->
<!DOCTYPE svg PUBLIC "-//W3C//DTD SVG 1.1//EN" "http://www.w3.org/Graphics/SVG/1.1/DTD/svg11.dtd">
<svg version="1.1" id="Layer_1" xmlns="http://www.w3.org/2000/svg" xmlns:xlink="http://www.w3.org/1999/xlink" x="0px" y="0px"
	 width="16px" height="16px" viewBox="0 0 16 16" enable-background="new 0 0 16 16" xml:space="preserve">
<path fill="#D21E1E" d="M16,8c0-4.418-3.582-8-8-8S0,3.582,0,8s3.582,8,8,8S16,12.418,16,8z M14,8c0,1.037-0.265,2.014-0.73,2.865
	L5.134,2.73C5.986,2.265,6.963,2,8,2C11.309,2,14,4.691,14,8z M2,8c0-1.184,0.35-2.285,0.943-3.217l8.273,8.273
	C10.285,13.65,9.184,14,8,14C4.691,14,2,11.309,2,8z"/>
</svg>
