<?xml version="1.0" encoding="utf-8"?>
<!-- Generator: Adobe Illustrator 16.0.0, SVG Export Plug-In . SVG Version: 6.00 Build 0)  -->
<!DOCTYPE svg PUBLIC "-//W3C//DTD SVG 1.1//EN" "http://www.w3.org/Graphics/SVG/1.1/DTD/svg11.dtd">
<svg version="1.1" id="Layer_1" xmlns="http://www.w3.org/2000/svg" xmlns:xlink="http://www.w3.org/1999/xlink" x="0px" y="0px"
	 width="48px" height="48px" viewBox="0 0 48 48" enable-background="new 0 0 48 48" xml:space="preserve">
<path fill="#D21E1E" enable-background="new    " d="M24,47C11.318,47,1,36.682,1,24C1,11.318,11.318,1,24,1
	c12.682,0,23,10.318,23,23C47,36.682,36.682,47,24,47z"/>
<path fill="#FFFFFF" d="M35,21H13c-0.552,0-1,0.448-1,1v4c0,0.553,0.448,1,1,1h22c0.553,0,1-0.447,1-1v-4C36,21.448,35.553,21,35,21
	z"/>
</svg>
