<?xml version="1.0" encoding="utf-8"?>
<!-- Generator: Adobe Illustrator 16.0.0, SVG Export Plug-In . SVG Version: 6.00 Build 0)  -->
<!DOCTYPE svg PUBLIC "-//W3C//DTD SVG 1.1//EN" "http://www.w3.org/Graphics/SVG/1.1/DTD/svg11.dtd">
<svg version="1.1" id="Layer_1" xmlns="http://www.w3.org/2000/svg" xmlns:xlink="http://www.w3.org/1999/xlink" x="0px" y="0px"
	 width="16px" height="16px" viewBox="0 0 16 16" enable-background="new 0 0 16 16" xml:space="preserve">
<path d="M10.156,7.361C11.264,6.649,12.001,5.414,12.001,4c0-2.209-1.79-4-4-4c-2.209,0-4,1.791-4,4c0,1.414,0.737,2.649,1.844,3.36
	c-1.609,0.528-3.017,1.618-3.889,3.106C0.938,12.205,1,14.064,1,16h13.998c0-1.842,0.074-3.627-0.829-5.309
	C13.311,9.093,11.846,7.917,10.156,7.361z"/>
<circle fill="#FFFFFF" cx="8" cy="4" r="2"/>
<path fill="#FFFFFF" d="M3.028,14c0.055-0.943,0.211-1.767,0.654-2.522C4.563,9.973,6.258,9,8,9c1.817,0,3.547,1.035,4.408,2.639
	c0.379,0.705,0.517,1.492,0.566,2.361H3.028z"/>
</svg>
