<?xml version="1.0" encoding="utf-8"?>
<!-- Generator: Adobe Illustrator 16.0.0, SVG Export Plug-In . SVG Version: 6.00 Build 0)  -->
<!DOCTYPE svg PUBLIC "-//W3C//DTD SVG 1.1//EN" "http://www.w3.org/Graphics/SVG/1.1/DTD/svg11.dtd">
<svg version="1.1" id="Layer_1" xmlns="http://www.w3.org/2000/svg" xmlns:xlink="http://www.w3.org/1999/xlink" x="0px" y="0px"
	 width="16px" height="16px" viewBox="0 0 16 16" enable-background="new 0 0 16 16" xml:space="preserve">
<circle fill="#333333" cx="7.5" cy="8.5" r="7.5"/>
<polygon fill="#FFFFFF" points="8,8 11,8 11,9 7,9 7,5 8,5 "/>
<path fill="#333333" d="M0.223,4.125C0.082,3.777,0,3.398,0,3c0-1.657,1.343-3,3-3c0.611,0,1.179,0.185,1.653,0.499
	C2.789,1.163,1.229,2.455,0.223,4.125z"/>
<path fill="#333333" d="M15,3c0,0.398-0.082,0.777-0.223,1.125c-1.006-1.67-2.566-2.962-4.43-3.625C10.82,0.185,11.389,0,12,0
	C13.657,0,15,1.343,15,3z"/>
</svg>
