<!-- Copyright © 2015 MODULUS Sp. z o. o. / FUTURAMO™ --><svg xmlns="http://www.w3.org/2000/svg" x="0px" y="0px" width="16px" height="16px" viewBox="0 0 32 32"><path  fill="#000000" d="M16,6c0-3.314,2.688-6,6-6c3.316,0,6,2.686,6,6s-2.684,6-6,6C18.688,12,16,9.314,16,6z M32,24v8h-4 c0-3.314-2.687-6-6-6s-6,2.686-6,6h-4H0v-6c0-4.418,3.582-8,8-8c1.878,0,3.601,0.652,4.965,1.735C14.567,16.348,18.005,14,22,14 C27.522,14,32,18.477,32,24z M26,20c0-2.209-1.791-4-4-4s-4,1.791-4,4c0,2.209,1.791,4,4,4S26,22.209,26,20z M8,16 c2.761,0,5-2.239,5-5s-2.239-5-5-5s-5,2.239-5,5S5.239,16,8,16z"></path></svg>