<?xml version="1.0" encoding="utf-8"?>
<!-- Generator: Adobe Illustrator 16.0.0, SVG Export Plug-In . SVG Version: 6.00 Build 0)  -->
<!DOCTYPE svg PUBLIC "-//W3C//DTD SVG 1.1//EN" "http://www.w3.org/Graphics/SVG/1.1/DTD/svg11.dtd">
<svg version="1.1" id="Layer_1" xmlns="http://www.w3.org/2000/svg" xmlns:xlink="http://www.w3.org/1999/xlink" x="0px" y="0px"
	 width="16px" height="16px" viewBox="0 0 16 16" enable-background="new 0 0 16 16" xml:space="preserve">
<polygon points="0,0 0,12 3,12 3,16 9,12 16,12 16,0 "/>
<path fill="#FFFFFF" d="M6,6c0-0.553-0.447-1-1-1S4,5.447,4,6s0.447,1,1,1S6,6.553,6,6"/>
<path fill="#FFFFFF" d="M9,6c0-0.553-0.447-1-1-1S7,5.447,7,6s0.447,1,1,1C8.553,7,9,6.553,9,6"/>
<path fill="#FFFFFF" d="M12,6c0-0.553-0.447-1-1-1s-1,0.447-1,1s0.447,1,1,1S12,6.553,12,6"/>
</svg>
