<svg xmlns="http://www.w3.org/2000/svg" viewBox="0 0 16 16"><path d="M5.969 4.395l-.047-.74.677-.376.614.219-.57.472-.674.425zM16 8A8 8 0 1 1 0 8a8 8 0 0 1 16 0zm-5.312-2.547l.686.336.531 1.105.609-1.071-.908-1.413-.918 1.043zm-1.192.567l-.804-.654-.231.353-.649-.32-.932.906 1.033-.162.23.359.723.695 2.24-.219-1.61-.958zm4.383 3.027l-1.195-1.488-1.643.736 1.168.54-.959.956-.875.584-.25.916-.875 1.125-1.167.667-.63-1.739-.015-1.428-.709-.27-1.666-.771.356-1.442.745-.892-.177-1.1.715-.086-.152-.577 1.348-.944s1.272-.131 1.299-.306l-.259-.425-.449.447-.347-.51-.818-.204 1.59-.758A6.006 6.006 0 0 0 8 2c-1.48 0-2.834.541-3.881 1.433.018.24.166.79.166.79s-1.048.456-1.289.49a5.93 5.93 0 0 0-.966 2.689c.122.204.301.54.457.84l.906.518.551 1.653-.896.958A5.987 5.987 0 0 0 8 14c2.948 0 5.379-2.146 5.879-4.953z"/></svg>