<svg xmlns="http://www.w3.org/2000/svg" viewBox="0 0 32 32"><path d="M20.375 28H8.824C3.959 28 0 24.187 0 19.5c0-2.901 1.533-5.563 4.004-7.114C4.158 7.736 8.135 4 13 4c2.027 0 3.953.644 5.527 1.83a10.788 10.788 0 0 1 1.848-.164c6.41 0 11.625 5.01 11.625 11.167S26.785 28 20.375 28zM13 8c-2.758 0-5 2.093-5 4.666 0 .813.277 1.973.277 1.973S4 15.719 4 19.5C4 21.981 6.164 24 8.824 24h11.551C24.58 24 28 20.785 28 16.833s-3.42-7.167-7.625-7.167c-.574 0-1.184.084-1.918.264l-1.072.263-.793-.767C15.639 8.507 14.363 8 13 8z"/></svg>