<svg xmlns="http://www.w3.org/2000/svg" viewBox="0 0 48 48"><path d="M42.261 33.767c-6.209 6.216-16.22 6.271-22.428.053a.961.961 0 0 1-.056-.06s-2.153-2.732.58-5.472c2.659-2.661 5.042-.156 5.042-.156a.316.316 0 0 0 .055.06c3.103 3.109 8.107 3.082 11.213-.027 3.104-3.109 3.255-7.997.15-11.106L19.803.027 31.019 0l11.407 11.417c6.207 6.217 6.044 16.132-.165 22.35z"/><path d="M5.599 13.69c6.21-6.217 16.22-6.27 22.428-.054.039.038.057.06.057.06s2.152 2.734-.58 5.47c-2.66 2.664-5.04.158-5.04.158s-.018-.023-.056-.061c-3.104-3.108-8.11-3.079-11.214.028-3.104 3.108-2.976 8.279.129 11.384.037.039 17.293 17.315 17.295 17.313L17.385 48 5.715 36.318C-.494 30.102-.61 19.907 5.599 13.69z"/></svg>