<svg xmlns="http://www.w3.org/2000/svg" xmlns:xlink="http://www.w3.org/1999/xlink" viewBox="0 0 16 16"><defs><path id="a" d="M7.1 12.05c-2.8 0-5.1-2.199-5.1-5 0-2.8 2.3-5.1 5.1-5.1s5.1 2.3 5.1 5.1c0 2.801-2.3 5-5.1 5zm5.6-.8a6.852 6.852 0 0 0 1.399-4.2c0-3.899-3.1-7.1-7-7.1S0 3.15 0 7.05c0 3.9 3.2 7.101 7.1 7.101 1.6 0 3.1-.5 4.2-1.4l3 3c.2.2.5.3.7.3s.5-.1.7-.3a.967.967 0 0 0 0-1.399l-3-3.102z"/></defs><use xlink:href="#a" overflow="visible" fill-rule="evenodd" clip-rule="evenodd" fill="#5F6971"/><clipPath id="b"><use xlink:href="#a" overflow="visible"/></clipPath><path clip-path="url(#b)" fill="#5F6971" d="M-5-5.05h26v26.1H-5z"/></svg>