<!-- Copyright © 2015 MODULUS Sp. z o. o. / FUTURAMO™ --><svg xmlns="http://www.w3.org/2000/svg" x="0px" y="0px" width="16px" height="16px" viewBox="0 0 32 32"><path  fill="#FFFFFF" d="M32,6c0,0.797-0.163,1.554-0.445,2.25c-2.012-3.34-5.133-5.924-8.861-7.251C23.643,0.37,24.777,0,26,0 C29.314,0,32,2.686,32,6z M16,10v8h8v-2h-6v-6H16z M2,6c0,0.797,0.163,1.554,0.445,2.25c2.012-3.34,5.133-5.924,8.861-7.251 C10.357,0.37,9.223,0,8,0C4.686,0,2,2.686,2,6z M16.968,2C9.497,2,2.164,8.296,2,16.004h4.009c0.417-4.343,3.469-8.193,7.654-9.494 c4.322-1.344,9.233,0.166,12.005,3.75c2.69,3.478,3.069,8.425,0.852,12.235c-1.048,1.801-2.616,3.282-4.461,4.25 c-1.801,0.945-3.62,1.209-5.591,1.236c-0.273,0.004-0.493,0.226-0.493,0.5v3.491c8.347,0.518,15.882-6.302,16.023-14.681 C32.136,9.092,25.186,2,16.968,2z M13.634,24.064L14,24.125v0.222v0.148v1.009v0.148v0.222l-0.365,0.061l0,0l-1.525,0.254 c-0.066,0.284-0.155,0.559-0.265,0.823c-0.11,0.264-0.241,0.517-0.391,0.757l0.9,1.26l0,0l0.215,0.302l-0.262,0.262l-0.713,0.713 l-0.262,0.262l-0.302-0.216h0l-0.261-0.187l-0.998-0.713c-0.481,0.3-1.012,0.524-1.581,0.656l-0.254,1.525l0,0L7.875,32H7.653H7.504 H6.496H6.347H6.125l-0.036-0.219l0,0L5.81,30.109c-0.568-0.132-1.1-0.356-1.58-0.656l-1.259,0.899h0l-0.301,0.215l-0.157-0.157h0 l-0.924-0.922c0,0,0,0,0,0l-0.157-0.157l0.129-0.181l0,0l0.986-1.38c-0.15-0.24-0.281-0.493-0.391-0.757 c-0.11-0.264-0.199-0.539-0.265-0.823l-0.705-0.117l-0.819-0.136l0,0l-0.365-0.061l0-0.222v0L0,24.347l0,0l0-0.222l0.219-0.037l0,0 l1.671-0.278c0.132-0.568,0.356-1.099,0.655-1.58L1.56,20.85l0,0l-0.129-0.181l0.157-0.157l0.105-0.105l0,0l0.139-0.139l0.679-0.68 l0,0l0.157-0.157l0.302,0.216l0,0l1.259,0.9c0.481-0.3,1.013-0.524,1.581-0.656l0.278-1.671l0,0L6.125,18h0.222h0.148h1.009h0.148 h0.222l0.061,0.365l0,0l0.254,1.525c0.568,0.132,1.1,0.356,1.58,0.656l1.38-0.986h0l0.181-0.129l0.262,0.262l0,0l0.713,0.714l0,0 l0.105,0.105l0.157,0.157l-0.215,0.301v0l-0.9,1.259c0.15,0.24,0.281,0.493,0.391,0.757c0.11,0.264,0.199,0.539,0.265,0.823 L13.634,24.064L13.634,24.064z M10,25c0-1.657-1.343-3-3-3s-3,1.343-3,3s1.343,3,3,3S10,26.657,10,25z"></path></svg>