<?xml version="1.0" encoding="utf-8"?>
<!-- Generator: Adobe Illustrator 16.0.0, SVG Export Plug-In . SVG Version: 6.00 Build 0)  -->
<!DOCTYPE svg PUBLIC "-//W3C//DTD SVG 1.1//EN" "http://www.w3.org/Graphics/SVG/1.1/DTD/svg11.dtd">
<svg version="1.1" id="Layer_1" xmlns:sketch="http://www.bohemiancoding.com/sketch/ns"
	 xmlns="http://www.w3.org/2000/svg" xmlns:xlink="http://www.w3.org/1999/xlink" x="0px" y="0px" width="64px" height="64px"
	 viewBox="0 0 64 64" enable-background="new 0 0 64 64" xml:space="preserve">
<g>
	<title>module-aboutmodules</title>
	<desc>Created with Sketch.</desc>
	<g>
		<defs>
			<path id="SVGID_1_" d="M16.354,41.853l15.131,5.043V22.066L16.68,17.131c-0.158-0.053-0.33-0.027-0.465,0.07
				C16.08,17.299,16,17.455,16,17.621v23.742C16,41.584,16.143,41.781,16.354,41.853"/>
		</defs>
		<use xlink:href="#SVGID_1_"  overflow="visible" fill-rule="evenodd" clip-rule="evenodd" fill="#FFFFFF"/>
		<clipPath id="SVGID_2_">
			<use xlink:href="#SVGID_1_"  overflow="visible"/>
		</clipPath>
		<rect x="13.42" y="14.524" clip-path="url(#SVGID_2_)" fill="#FFFFFF" width="20.645" height="34.953"/>
	</g>
	<g>
		<defs>
			<path id="SVGID_3_" d="M47.786,17.202c-0.136-0.098-0.309-0.124-0.465-0.071l-14.806,4.936v24.829l15.131-5.043
				c0.212-0.07,0.354-0.269,0.354-0.49V17.621C48,17.455,47.92,17.299,47.786,17.202"/>
		</defs>
		<use xlink:href="#SVGID_3_"  overflow="visible" fill-rule="evenodd" clip-rule="evenodd" fill="#FFFFFF"/>
		<clipPath id="SVGID_4_">
			<use xlink:href="#SVGID_3_"  overflow="visible"/>
		</clipPath>
		<rect x="29.936" y="14.524" clip-path="url(#SVGID_4_)" fill="#FFFFFF" width="20.645" height="34.953"/>
	</g>
</g>
</svg>
