<!-- Copyright © 2015 MODULUS Sp. z o. o. / FUTURAMO™ --><svg xmlns="http://www.w3.org/2000/svg" x="0px" y="0px" width="16px" height="16px" viewBox="0 0 32 32"><path  fill="#FFFFFF" d="M8.644,14.681L4.406,22H12v6H6.667L0,17.831l3.46-6.169L0.062,9.684l10.076-3.39l2.021,10.436L8.644,14.681z  M32,17.831l-2.387-4.317l-5.386,2.672L27.594,22H22v-4l-8,7l8,7v-4h3.333L32,17.831z M19.415,7.874l-3.165,1.57l9.826,4.056 l2.716-10.277l-3.99,1.979L21.789,0H10.211L8.185,3.5l5.185,3.02L16,1.975L19.415,7.874z"></path></svg>