<!-- Copyright © 2015 MODULUS Sp. z o. o. / FUTURAMO™ --><svg xmlns="http://www.w3.org/2000/svg" x="0px" y="0px" width="16px" height="16px" viewBox="0 0 32 32"><path  fill="#FFFFFF" d="M28.109,23.81c-0.066-0.283-0.155-0.559-0.266-0.822c-0.109-0.264-0.24-0.518-0.39-0.757l1.115-1.562 l-1.238-1.238l-1.562,1.115c-0.479-0.299-1.012-0.523-1.58-0.655L23.875,18h-1.75l-0.315,1.891c-0.568,0.133-1.1,0.357-1.582,0.656 l-1.56-1.116l-1.237,1.238l1.114,1.562c-0.3,0.48-0.523,1.012-0.655,1.579L16,24.125l0.001,1.75l1.89,0.315 c0.065,0.283,0.154,0.559,0.265,0.822c0.11,0.265,0.241,0.518,0.391,0.757l-1.114,1.562l1.237,1.237l1.562-1.114 c0.479,0.299,1.012,0.522,1.58,0.655L22.125,32h1.75l0.06-0.365l0.254-1.525c0.568-0.133,1.1-0.357,1.582-0.656l1.56,1.116 l1.238-1.238l-1.115-1.562c0.149-0.24,0.28-0.492,0.39-0.757c0.11-0.264,0.199-0.539,0.266-0.822L30,25.875v-1.75L28.109,23.81z  M23,28c-1.656,0-3-1.343-3-3c0-1.657,1.344-3,3-3c1.657,0,3,1.343,3,3C26,26.657,24.657,28,23,28z M8,6h4v2H8V6z M8,24v-2h4v2H8z  M14,26H6v-6h10v-2H6v-6h16v4h4V0H2v30h12V26z M6,4h16v6H6V4z M8,16v-2h4v2H8z"></path></svg>