<?xml version="1.0" encoding="utf-8"?>
<!-- Generator: Adobe Illustrator 16.0.0, SVG Export Plug-In . SVG Version: 6.00 Build 0)  -->
<!DOCTYPE svg PUBLIC "-//W3C//DTD SVG 1.1//EN" "http://www.w3.org/Graphics/SVG/1.1/DTD/svg11.dtd">
<svg version="1.1" id="Layer_1" xmlns="http://www.w3.org/2000/svg" xmlns:xlink="http://www.w3.org/1999/xlink" x="0px" y="0px"
	 width="32px" height="32px" viewBox="0 0 32 32" enable-background="new 0 0 32 32" xml:space="preserve">
<g>
	<path fill="#FFFFFF" d="M23,2.4C23,1.075,24.174,0,25.5,0l0,0C26.826,0,28,1.075,28,2.4v27.2c0,1.326-1.174,2.4-2.5,2.4l0,0
		c-1.326,0-2.5-1.074-2.5-2.4V2.4z"/>
	<path opacity="0.6" fill="#FFFFFF" d="M18,24.6c0,1.326-1.119,2.4-2.5,2.4l0,0c-1.381,0-2.5-1.074-2.5-2.4V7.4
		C13,6.075,14.119,5,15.5,5l0,0C16.881,5,18,6.075,18,7.4V24.6z"/>
	<path opacity="0.2" fill="#FFFFFF" d="M9,20.6C9,21.926,7.881,23,6.5,23l0,0C5.119,23,4,21.926,4,20.6v-8.2
		C4,11.075,5.119,10,6.5,10l0,0C7.881,10,9,11.075,9,12.4V20.6z"/>
	<path opacity="0.4" fill="#FFFFFF" d="M9,13.333c0-0.883,0.674-1.6,2-1.6l0,0c1.326,0,2,0.717,2,1.6v5.334c0,0.884-0.674,1.6-2,1.6
		l0,0c-1.326,0-2-0.716-2-1.6V13.333z"/>
	<path opacity="0.8" fill="#FFFFFF" d="M23,20.6c0,1.326-1.008,2.4-2.25,2.4h-0.5C19.008,23,18,21.926,18,20.6v-8.2
		c0-1.325,1.008-2.4,2.25-2.4h0.5c1.242,0,2.25,1.075,2.25,2.4V20.6z"/>
</g>
</svg>
