<!-- Copyright © 2015 MODULUS Sp. z o. o. / FUTURAMO™ --><svg xmlns="http://www.w3.org/2000/svg" x="0px" y="0px" width="16px" height="16px" viewBox="0 0 32 32"><path  fill="#FFFFFF" d="M1.236,15.41l2.667-0.49c0.358,0.449,0.764,0.857,1.221,1.223L4.636,18.8 c0.458,0.281,0.92,0.558,1.432,0.769c0.511,0.212,1.034,0.343,1.555,0.468l1.535-2.224c0.582,0.064,1.158,0.064,1.728-0.001 l1.539,2.232c1.054-0.254,2.058-0.67,2.983-1.236l-0.489-2.667c0.448-0.357,0.856-0.765,1.222-1.222l2.658,0.488 c0.28-0.458,0.557-0.92,0.769-1.431c0.211-0.511,0.343-1.034,0.468-1.556l-2.225-1.534c0.065-0.582,0.064-1.158,0-1.728l2.231-1.54 c-0.253-1.054-0.67-2.058-1.236-2.984l-2.666,0.49c-0.358-0.449-0.765-0.857-1.222-1.223l0.488-2.658 c-0.458-0.281-0.92-0.558-1.431-0.77c-0.512-0.212-1.034-0.343-1.556-0.468l-1.535,2.224c-0.582-0.064-1.158-0.063-1.728,0.001 L7.618,0.001C6.564,0.255,5.56,0.671,4.635,1.236l0.489,2.667C4.676,4.262,4.268,4.668,3.902,5.125L1.244,4.637 c-0.28,0.458-0.557,0.92-0.769,1.431C0.263,6.579,0.132,7.102,0.007,7.624l2.225,1.534c-0.065,0.582-0.064,1.157,0.001,1.728 L0,12.426C0.254,13.48,0.67,14.484,1.236,15.41z M6.015,8.362c0.673-1.627,2.247-2.677,4.013-2.677c0.57,0,1.125,0.111,1.654,0.33 c1.069,0.442,1.903,1.276,2.347,2.348c0.442,1.072,0.444,2.251,0,3.32c-0.673,1.626-2.247,2.677-4.011,2.677 c-0.57,0-1.127-0.112-1.656-0.331C6.152,13.115,5.101,10.573,6.015,8.362z M29.604,21.311c-0.139-0.48-0.328-0.934-0.565-1.364 l1.257-1.944c-0.544-0.749-1.202-1.405-1.95-1.95l-1.943,1.258c-0.429-0.237-0.884-0.426-1.364-0.565l-0.483-2.257 c-0.453-0.072-0.908-0.139-1.381-0.14c-0.473,0-0.928,0.068-1.381,0.14l-0.484,2.257c-0.48,0.14-0.934,0.328-1.364,0.565 l-1.944-1.258c-0.749,0.545-1.405,1.202-1.95,1.95l1.258,1.945c-0.237,0.429-0.426,0.883-0.565,1.363l-2.257,0.484 c-0.071,0.453-0.139,0.908-0.139,1.381c0,0.473,0.068,0.928,0.139,1.38l2.257,0.484c0.139,0.48,0.328,0.934,0.566,1.363 l-1.258,1.945c0.545,0.748,1.202,1.405,1.951,1.95l1.944-1.258c0.429,0.237,0.883,0.426,1.363,0.566l0.483,2.257 c0.453,0.072,0.908,0.139,1.381,0.139c0.472,0,0.928-0.067,1.38-0.139l0.484-2.257c0.481-0.14,0.934-0.328,1.364-0.565l1.944,1.258 c0.749-0.545,1.405-1.202,1.95-1.95l-1.258-1.945c0.237-0.428,0.426-0.883,0.565-1.363l2.257-0.484 C31.932,24.103,32,23.648,32,23.175c0-0.473-0.068-0.928-0.139-1.381L29.604,21.311z M24.589,26.599 c-0.449,0.186-0.926,0.281-1.415,0.28c-2.042,0.001-3.703-1.661-3.704-3.704c0-1.504,0.898-2.847,2.291-3.424 c0.449-0.186,0.924-0.281,1.413-0.28c0.988,0,1.918,0.385,2.619,1.086c0.699,0.701,1.086,1.631,1.085,2.62 C26.879,24.679,25.98,26.023,24.589,26.599z"></path></svg>