<!-- Copyright © 2015 MODULUS Sp. z o. o. / FUTURAMO™ --><svg xmlns="http://www.w3.org/2000/svg" x="0px" y="0px" width="16px" height="16px" viewBox="0 0 32 32"><path  fill="#FFFFFF" d="M30.109,23.81c-0.066-0.284-0.155-0.559-0.265-0.823c-0.11-0.264-0.241-0.517-0.391-0.757l1.115-1.561 l-1.237-1.238l-1.561,1.115c-0.481-0.3-1.012-0.524-1.58-0.656L25.875,18h-1.75l-0.315,1.891c-0.568,0.132-1.1,0.356-1.581,0.656 l-1.561-1.115l-1.237,1.238l1.115,1.561c-0.299,0.481-0.523,1.012-0.655,1.58L18,24.125l0.001,1.75l1.89,0.315 c0.066,0.284,0.155,0.559,0.265,0.823c0.11,0.264,0.241,0.517,0.391,0.757l-1.115,1.561l1.238,1.236l1.56-1.114 c0.481,0.3,1.012,0.524,1.58,0.656L24.125,32h1.75l0.315-1.891c0.569-0.132,1.1-0.356,1.581-0.656l1.561,1.116l1.237-1.237 l-1.115-1.562c0.15-0.24,0.281-0.493,0.391-0.757c0.11-0.264,0.199-0.539,0.265-0.823L32,25.875v-1.75L30.109,23.81z M25,28 c-1.657,0-3-1.343-3-3s1.343-3,3-3s3,1.343,3,3S26.657,28,25,28z M16,22H4V12h8v4h4v-4h8v4h4V4h-8V0H8v4H0v22h16V22z M10,2h8v2h-8V2 z M4,8h20v2H4V8z"></path></svg>